<svg width="206" viewBox="0 0 206 54" fill="none" xmlns="http://www.w3.org/2000/svg">
<path d="M132.159 11.5674H126.049C125.322 11.5674 124.74 12.0562 124.449 12.8708L118.339 31.2813L112.374 12.8708C112.083 12.0562 111.647 11.5674 110.774 11.5674H104.664C104.373 11.5674 104.082 11.7303 103.791 11.8932C103.5 12.2191 103.5 12.5449 103.5 12.8708L103.645 13.3596L113.829 41.2197C113.974 41.7085 114.265 42.0343 114.556 42.3602C114.847 42.686 115.138 42.686 115.72 42.686H121.394C121.83 42.686 122.267 42.5231 122.558 42.3602C122.848 42.1973 123.139 41.7085 123.285 41.2197L133.468 13.3596L133.614 12.8708C133.614 12.5449 133.468 12.2191 133.177 11.8932C132.741 11.7303 132.45 11.5674 132.159 11.5674Z" fill="white"/>
<path d="M176.821 0.162598H170.565C170.274 0.162598 169.838 0.325521 169.692 0.651369C169.401 0.977217 169.256 1.30306 169.256 1.79184V41.3823C169.256 41.7082 169.401 42.1969 169.692 42.3599C169.983 42.5228 170.274 42.8486 170.565 42.8486H176.821C177.257 42.8486 177.548 42.6857 177.839 42.3599C178.13 42.034 178.275 41.7082 178.275 41.2194V1.62891C178.275 1.14014 178.13 0.814293 177.839 0.488445C177.548 0.325521 177.257 0.162598 176.821 0.162598Z" fill="white"/>
<path d="M204.752 35.0288C204.461 34.7029 204.17 34.54 203.734 34.54H199.66C197.624 34.54 196.605 33.0737 196.605 30.141V19.5509H203.297C203.734 19.5509 204.025 19.388 204.316 19.0622C204.607 18.7363 204.752 18.4105 204.752 17.9217V13.034C204.752 12.5452 204.607 12.2193 204.316 11.8935C204.025 11.5676 203.734 11.4047 203.297 11.4047H196.605V1.62924C196.605 1.14047 196.46 0.814622 196.169 0.488773C195.878 0.162924 195.587 0 195.151 0H188.895C188.604 0 188.168 0.162924 188.022 0.488773C187.731 0.814622 187.586 1.14047 187.586 1.62924V11.5676H183.367C182.93 11.5676 182.64 11.7306 182.349 12.0564C182.058 12.3823 181.912 12.7081 181.912 13.1969V18.0846C181.912 18.5734 182.058 18.8992 182.349 19.2251C182.64 19.5509 182.93 19.7139 183.367 19.7139H187.586V30.9556C187.586 38.776 191.223 42.8491 198.642 42.8491H203.588C204.025 42.8491 204.316 42.6862 204.607 42.3603C204.898 42.0345 205.043 41.7087 205.043 41.3828V36.1692C205.043 35.6805 205.043 35.3546 204.752 35.0288Z" fill="white"/>
<path d="M136.232 34.54C136.523 33.3996 136.96 32.422 137.251 31.4445C137.978 29.1635 138.705 26.8825 139.578 24.6016L143.07 14.8261L146.707 19.7138C147.434 18.8992 148.452 18.5733 149.762 18.5733C150.198 18.5733 150.635 18.5733 151.071 18.7363C151.653 17.4329 152.235 16.2924 152.962 14.989C153.544 14.0114 154.126 12.871 154.562 11.8934C153.108 11.5676 151.507 11.2417 149.762 11.2417C145.543 11.2417 142.051 12.3822 139.578 14.8261C137.105 17.2699 135.796 20.5284 135.505 24.7645C135.505 25.2533 135.505 26.2308 135.505 27.5342C135.505 28.8376 135.505 29.6523 135.505 30.304C135.505 31.6074 135.796 33.0737 136.232 34.54Z" fill="white"/>
<path d="M162.854 19.2251C162.709 19.388 162.709 19.7139 162.563 19.8768C161.4 23.1353 160.381 26.068 159.218 29.0006C158.199 31.6074 157.035 34.5401 155.435 37.9615L153.253 43.0122C156.017 42.5234 158.199 41.383 159.945 39.7537C162.273 37.4727 163.582 34.0513 163.873 29.8152C163.873 29.3265 163.873 28.3489 163.873 27.0455C163.873 25.7421 163.873 24.9275 163.873 24.2758C163.727 22.6465 163.436 20.8544 162.854 19.2251Z" fill="white"/>
<path d="M143.651 42.5232C144.961 43.012 146.415 43.3379 148.016 43.3379L145.397 39.1016C144.815 40.2421 144.233 41.3827 143.651 42.5232Z" fill="white"/>
<path d="M159.945 7.98217C159.508 8.63387 159.217 9.28556 158.781 9.93726C158.199 10.9148 157.763 11.7294 157.181 12.707C156.453 13.8475 155.871 15.1509 155.29 16.2913C154.562 17.5947 153.98 18.8981 153.253 20.3644C152.671 21.6678 151.944 22.9712 151.362 24.2746C151.216 24.4376 151.216 24.6005 151.071 24.9263C150.489 26.2297 149.907 27.3702 149.47 28.6736C148.889 27.859 148.307 27.0444 147.725 26.3927C147.434 26.0668 147.143 25.578 146.852 25.2522L145.106 22.8083L143.797 21.0161L142.197 25.741C141.469 28.0219 140.596 30.3028 139.869 32.5838C139.287 34.5389 138.705 36.494 137.978 38.4491C137.832 38.7749 137.832 39.1008 137.687 39.4266C137.396 40.2413 137.25 41.2188 136.959 42.0334C136.523 43.4997 136.087 44.9661 135.796 46.4324C135.505 47.5729 135.214 48.7133 134.923 50.0167C134.632 51.1572 134.341 52.4606 134.195 53.6011C134.777 52.6235 135.505 51.646 136.087 50.5055C136.668 49.528 137.25 48.3875 137.832 47.4099C138.414 46.2695 138.996 45.2919 139.578 44.1514C140.014 43.1739 140.596 42.1963 141.033 41.3817L141.178 41.2188C142.197 39.1008 143.36 36.9828 144.379 34.8647C144.67 34.376 144.961 33.7243 145.106 33.2355C145.979 34.7018 146.852 36.0052 147.725 37.4715L150.634 42.0334L152.962 36.8198C154.271 33.8872 155.435 30.9545 156.599 28.0219C157.763 25.0893 158.927 21.9937 159.945 19.061C160.236 18.0835 160.672 17.1059 160.963 16.1284C161.4 14.9879 161.691 13.8475 161.982 12.707C162.272 11.7294 162.563 10.9148 162.854 9.93726C163.291 8.30802 163.727 6.84169 164.164 5.21245C164.6 3.5832 164.891 1.95395 165.182 0.324707C164.164 1.6281 163.291 2.9315 162.418 4.2349C161.545 5.21245 160.672 6.67877 159.945 7.98217Z" fill="white" class="power"/>
<path d="M132.159 11.5674H126.049C125.322 11.5674 124.74 12.0562 124.449 12.8708L118.339 31.2813L112.374 12.8708C112.083 12.0562 111.647 11.5674 110.774 11.5674H104.664C104.373 11.5674 104.082 11.7303 103.791 11.8932C103.5 12.2191 103.5 12.5449 103.5 12.8708L103.645 13.3596L113.829 41.2197C113.974 41.7085 114.265 42.0343 114.556 42.3602C114.847 42.686 115.138 42.686 115.72 42.686H121.394C121.83 42.686 122.267 42.5231 122.558 42.3602C122.848 42.1973 123.139 41.7085 123.285 41.2197L133.468 13.3596L133.614 12.8708C133.614 12.5449 133.468 12.2191 133.177 11.8932C132.741 11.7303 132.45 11.5674 132.159 11.5674Z" fill="white"/>
<path d="M176.821 0.162598H170.565C170.274 0.162598 169.838 0.325521 169.692 0.651369C169.401 0.977217 169.256 1.30306 169.256 1.79184V41.3823C169.256 41.7082 169.401 42.1969 169.692 42.3599C169.983 42.5228 170.274 42.8486 170.565 42.8486H176.821C177.257 42.8486 177.548 42.6857 177.839 42.3599C178.13 42.034 178.275 41.7082 178.275 41.2194V1.62891C178.275 1.14014 178.13 0.814293 177.839 0.488445C177.548 0.325521 177.257 0.162598 176.821 0.162598Z" fill="white"/>
<path d="M204.752 35.0288C204.461 34.7029 204.17 34.54 203.734 34.54H199.66C197.624 34.54 196.605 33.0737 196.605 30.141V19.5509H203.297C203.734 19.5509 204.025 19.388 204.316 19.0622C204.607 18.7363 204.752 18.4105 204.752 17.9217V13.034C204.752 12.5452 204.607 12.2193 204.316 11.8935C204.025 11.5676 203.734 11.4047 203.297 11.4047H196.605V1.62924C196.605 1.14047 196.46 0.814622 196.169 0.488773C195.878 0.162924 195.587 0 195.151 0H188.895C188.604 0 188.168 0.162924 188.022 0.488773C187.731 0.814622 187.586 1.14047 187.586 1.62924V11.5676H183.367C182.93 11.5676 182.64 11.7306 182.349 12.0564C182.058 12.3823 181.912 12.7081 181.912 13.1969V18.0846C181.912 18.5734 182.058 18.8992 182.349 19.2251C182.64 19.5509 182.93 19.7139 183.367 19.7139H187.586V30.9556C187.586 38.776 191.223 42.8491 198.642 42.8491H203.588C204.025 42.8491 204.316 42.6862 204.607 42.3603C204.898 42.0345 205.043 41.7087 205.043 41.3828V36.1692C205.043 35.6805 205.043 35.3546 204.752 35.0288Z" fill="white"/>
<path d="M136.232 34.54C136.523 33.3996 136.96 32.422 137.251 31.4445C137.978 29.1635 138.705 26.8825 139.578 24.6016L143.07 14.8261L146.707 19.7138C147.434 18.8992 148.452 18.5733 149.762 18.5733C150.198 18.5733 150.635 18.5733 151.071 18.7363C151.653 17.4329 152.235 16.2924 152.962 14.989C153.544 14.0114 154.126 12.871 154.562 11.8934C153.108 11.5676 151.507 11.2417 149.762 11.2417C145.543 11.2417 142.051 12.3822 139.578 14.8261C137.105 17.2699 135.796 20.5284 135.505 24.7645C135.505 25.2533 135.505 26.2308 135.505 27.5342C135.505 28.8376 135.505 29.6523 135.505 30.304C135.505 31.6074 135.796 33.0737 136.232 34.54Z" fill="white"/>
<path d="M162.854 19.2251C162.709 19.388 162.709 19.7139 162.563 19.8768C161.4 23.1353 160.381 26.068 159.218 29.0006C158.199 31.6074 157.035 34.5401 155.435 37.9615L153.253 43.0122C156.017 42.5234 158.199 41.383 159.945 39.7537C162.273 37.4727 163.582 34.0513 163.873 29.8152C163.873 29.3265 163.873 28.3489 163.873 27.0455C163.873 25.7421 163.873 24.9275 163.873 24.2758C163.727 22.6465 163.436 20.8544 162.854 19.2251Z" fill="white"/>
<path d="M143.651 42.5232C144.961 43.012 146.415 43.3379 148.016 43.3379L145.397 39.1016C144.815 40.2421 144.233 41.3827 143.651 42.5232Z" fill="white"/>
<path d="M159.945 7.98217C159.508 8.63387 159.217 9.28556 158.781 9.93726C158.199 10.9148 157.763 11.7294 157.181 12.707C156.453 13.8475 155.871 15.1509 155.29 16.2913C154.562 17.5947 153.98 18.8981 153.253 20.3644C152.671 21.6678 151.944 22.9712 151.362 24.2746C151.216 24.4376 151.216 24.6005 151.071 24.9263C150.489 26.2297 149.907 27.3702 149.47 28.6736C148.889 27.859 148.307 27.0444 147.725 26.3927C147.434 26.0668 147.143 25.578 146.852 25.2522L145.106 22.8083L143.797 21.0161L142.197 25.741C141.469 28.0219 140.596 30.3028 139.869 32.5838C139.287 34.5389 138.705 36.494 137.978 38.4491C137.832 38.7749 137.832 39.1008 137.687 39.4266C137.396 40.2413 137.25 41.2188 136.959 42.0334C136.523 43.4997 136.087 44.9661 135.796 46.4324C135.505 47.5729 135.214 48.7133 134.923 50.0167C134.632 51.1572 134.341 52.4606 134.195 53.6011C134.777 52.6235 135.505 51.646 136.087 50.5055C136.668 49.528 137.25 48.3875 137.832 47.4099C138.414 46.2695 138.996 45.2919 139.578 44.1514C140.014 43.1739 140.596 42.1963 141.033 41.3817L141.178 41.2188C142.197 39.1008 143.36 36.9828 144.379 34.8647C144.67 34.376 144.961 33.7243 145.106 33.2355C145.979 34.7018 146.852 36.0052 147.725 37.4715L150.634 42.0334L152.962 36.8198C154.271 33.8872 155.435 30.9545 156.599 28.0219C157.763 25.0893 158.927 21.9937 159.945 19.061C160.236 18.0835 160.672 17.1059 160.963 16.1284C161.4 14.9879 161.691 13.8475 161.982 12.707C162.272 11.7294 162.563 10.9148 162.854 9.93726C163.291 8.30802 163.727 6.84169 164.164 5.21245C164.6 3.5832 164.891 1.95395 165.182 0.324707C164.164 1.6281 163.291 2.9315 162.418 4.2349C161.545 5.21245 160.672 6.67877 159.945 7.98217Z" fill="white" class="power"/>
<path d="M11.85 54C9.11667 54 6.91667 53.5333 5.25 52.6C3.58333 51.7 2.4 50.6667 1.7 49.5C1 48.3333 0.616667 47.2833 0.55 46.35C0.516667 46.0167 0.616667 45.7333 0.85 45.5C1.11667 45.2667 1.4 45.15 1.7 45.15H4.1C4.4 45.15 4.65 45.2167 4.85 45.35C5.05 45.5167 5.21667 45.8 5.35 46.2C5.75 47.2667 6.4 48.1833 7.3 48.95C8.23333 49.75 9.66667 50.15 11.6 50.15C14.0667 50.15 15.8833 49.6167 17.05 48.55C18.2167 47.5167 18.8 45.6667 18.8 43V39.6C17.9333 40.7 16.8333 41.5833 15.5 42.25C14.1667 42.8833 12.5833 43.2 10.75 43.2C7.21667 43.2 4.56667 42.0833 2.8 39.85C1.06667 37.5833 0.15 34.7167 0.0500002 31.25L0 29.85L0.0500002 28.5C0.15 25.0667 1.08333 22.2167 2.85 19.95C4.61667 17.65 7.25 16.5 10.75 16.5C14.25 16.5 16.9833 17.7833 18.95 20.35V18.2C18.95 17.8667 19.05 17.5833 19.25 17.35C19.4833 17.1167 19.7667 17 20.1 17H22.4C22.7333 17 23.0167 17.1167 23.25 17.35C23.4833 17.5833 23.6 17.8667 23.6 18.2V42.45C23.6 50.15 19.6833 54 11.85 54ZM11.75 39.2C14.0167 39.2 15.7333 38.45 16.9 36.95C18.0667 35.45 18.7 33.6667 18.8 31.6C18.8333 31.3 18.85 30.7167 18.85 29.85C18.85 29.0167 18.8333 28.45 18.8 28.15C18.7 26.0833 18.0667 24.3 16.9 22.8C15.7667 21.3 14.05 20.55 11.75 20.55C9.38333 20.55 7.66667 21.2833 6.6 22.75C5.53333 24.2167 4.95 26.15 4.85 28.55L4.8 29.85L4.85 31.2C4.95 33.5667 5.53333 35.5 6.6 37C7.66667 38.4667 9.38333 39.2 11.75 39.2Z" fill="white"/>
<path d="M35.584 52.5C35.3173 52.5 35.084 52.4 34.884 52.2C34.684 52 34.584 51.7667 34.584 51.5C34.584 51.2667 34.6673 50.9667 34.834 50.6L38.684 41.45L29.134 18.9C28.9673 18.4667 28.884 18.1833 28.884 18.05C28.884 17.75 28.984 17.5 29.184 17.3C29.384 17.1 29.634 17 29.934 17H32.384C32.9173 17 33.3173 17.2833 33.584 17.85L41.184 36.05L48.984 17.85C49.2507 17.2833 49.6673 17 50.234 17H52.584C52.884 17 53.134 17.1 53.334 17.3C53.534 17.5 53.634 17.7333 53.634 18C53.634 18.1 53.5507 18.4 53.384 18.9L39.184 51.65C38.9173 52.2167 38.5007 52.5 37.934 52.5H35.584Z" fill="white"/>
<path d="M59.7719 43C59.4385 43 59.1552 42.9 58.9219 42.7C58.7219 42.4667 58.6219 42.1833 58.6219 41.85V18.15C58.6219 17.8167 58.7219 17.55 58.9219 17.35C59.1552 17.1167 59.4385 17 59.7719 17H62.0219C62.3552 17 62.6219 17.1167 62.8219 17.35C63.0552 17.55 63.1719 17.8167 63.1719 18.15V19.9C64.9052 17.6333 67.3219 16.5 70.4219 16.5C74.1219 16.5 76.7385 18.0333 78.2719 21.1C79.0719 19.7 80.2052 18.5833 81.6719 17.75C83.1385 16.9167 84.7885 16.5 86.6219 16.5C89.3552 16.5 91.5885 17.4333 93.3219 19.3C95.0552 21.1667 95.9219 23.8667 95.9219 27.4V41.85C95.9219 42.1833 95.8052 42.4667 95.5719 42.7C95.3719 42.9 95.1052 43 94.7719 43H92.4219C92.0885 43 91.8052 42.9 91.5719 42.7C91.3719 42.4667 91.2719 42.1833 91.2719 41.85V27.85C91.2719 25.25 90.7219 23.3833 89.6219 22.25C88.5552 21.1167 87.1385 20.55 85.3719 20.55C83.8052 20.55 82.4552 21.1333 81.3219 22.3C80.1885 23.4333 79.6219 25.2833 79.6219 27.85V41.85C79.6219 42.1833 79.5052 42.4667 79.2719 42.7C79.0719 42.9 78.8052 43 78.4719 43H76.1219C75.7885 43 75.5052 42.9 75.2719 42.7C75.0719 42.4667 74.9719 42.1833 74.9719 41.85V27.85C74.9719 25.25 74.4052 23.3833 73.2719 22.25C72.1719 21.1167 70.7719 20.55 69.0719 20.55C67.5052 20.55 66.1552 21.1333 65.0219 22.3C63.8885 23.4333 63.3219 25.2667 63.3219 27.8V41.85C63.3219 42.1833 63.2052 42.4667 62.9719 42.7C62.7719 42.9 62.5052 43 62.1719 43H59.7719Z" fill="white"/>
<path d="M11.85 54C9.11667 54 6.91667 53.5333 5.25 52.6C3.58333 51.7 2.4 50.6667 1.7 49.5C1 48.3333 0.616667 47.2833 0.55 46.35C0.516667 46.0167 0.616667 45.7333 0.85 45.5C1.11667 45.2667 1.4 45.15 1.7 45.15H4.1C4.4 45.15 4.65 45.2167 4.85 45.35C5.05 45.5167 5.21667 45.8 5.35 46.2C5.75 47.2667 6.4 48.1833 7.3 48.95C8.23333 49.75 9.66667 50.15 11.6 50.15C14.0667 50.15 15.8833 49.6167 17.05 48.55C18.2167 47.5167 18.8 45.6667 18.8 43V39.6C17.9333 40.7 16.8333 41.5833 15.5 42.25C14.1667 42.8833 12.5833 43.2 10.75 43.2C7.21667 43.2 4.56667 42.0833 2.8 39.85C1.06667 37.5833 0.15 34.7167 0.0500002 31.25L0 29.85L0.0500002 28.5C0.15 25.0667 1.08333 22.2167 2.85 19.95C4.61667 17.65 7.25 16.5 10.75 16.5C14.25 16.5 16.9833 17.7833 18.95 20.35V18.2C18.95 17.8667 19.05 17.5833 19.25 17.35C19.4833 17.1167 19.7667 17 20.1 17H22.4C22.7333 17 23.0167 17.1167 23.25 17.35C23.4833 17.5833 23.6 17.8667 23.6 18.2V42.45C23.6 50.15 19.6833 54 11.85 54ZM11.75 39.2C14.0167 39.2 15.7333 38.45 16.9 36.95C18.0667 35.45 18.7 33.6667 18.8 31.6C18.8333 31.3 18.85 30.7167 18.85 29.85C18.85 29.0167 18.8333 28.45 18.8 28.15C18.7 26.0833 18.0667 24.3 16.9 22.8C15.7667 21.3 14.05 20.55 11.75 20.55C9.38333 20.55 7.66667 21.2833 6.6 22.75C5.53333 24.2167 4.95 26.15 4.85 28.55L4.8 29.85L4.85 31.2C4.95 33.5667 5.53333 35.5 6.6 37C7.66667 38.4667 9.38333 39.2 11.75 39.2Z" fill="white"/>
<path d="M35.584 52.5C35.3173 52.5 35.084 52.4 34.884 52.2C34.684 52 34.584 51.7667 34.584 51.5C34.584 51.2667 34.6673 50.9667 34.834 50.6L38.684 41.45L29.134 18.9C28.9673 18.4667 28.884 18.1833 28.884 18.05C28.884 17.75 28.984 17.5 29.184 17.3C29.384 17.1 29.634 17 29.934 17H32.384C32.9173 17 33.3173 17.2833 33.584 17.85L41.184 36.05L48.984 17.85C49.2507 17.2833 49.6673 17 50.234 17H52.584C52.884 17 53.134 17.1 53.334 17.3C53.534 17.5 53.634 17.7333 53.634 18C53.634 18.1 53.5507 18.4 53.384 18.9L39.184 51.65C38.9173 52.2167 38.5007 52.5 37.934 52.5H35.584Z" fill="white"/>
<path d="M59.7719 43C59.4385 43 59.1552 42.9 58.9219 42.7C58.7219 42.4667 58.6219 42.1833 58.6219 41.85V18.15C58.6219 17.8167 58.7219 17.55 58.9219 17.35C59.1552 17.1167 59.4385 17 59.7719 17H62.0219C62.3552 17 62.6219 17.1167 62.8219 17.35C63.0552 17.55 63.1719 17.8167 63.1719 18.15V19.9C64.9052 17.6333 67.3219 16.5 70.4219 16.5C74.1219 16.5 76.7385 18.0333 78.2719 21.1C79.0719 19.7 80.2052 18.5833 81.6719 17.75C83.1385 16.9167 84.7885 16.5 86.6219 16.5C89.3552 16.5 91.5885 17.4333 93.3219 19.3C95.0552 21.1667 95.9219 23.8667 95.9219 27.4V41.85C95.9219 42.1833 95.8052 42.4667 95.5719 42.7C95.3719 42.9 95.1052 43 94.7719 43H92.4219C92.0885 43 91.8052 42.9 91.5719 42.7C91.3719 42.4667 91.2719 42.1833 91.2719 41.85V27.85C91.2719 25.25 90.7219 23.3833 89.6219 22.25C88.5552 21.1167 87.1385 20.55 85.3719 20.55C83.8052 20.55 82.4552 21.1333 81.3219 22.3C80.1885 23.4333 79.6219 25.2833 79.6219 27.85V41.85C79.6219 42.1833 79.5052 42.4667 79.2719 42.7C79.0719 42.9 78.8052 43 78.4719 43H76.1219C75.7885 43 75.5052 42.9 75.2719 42.7C75.0719 42.4667 74.9719 42.1833 74.9719 41.85V27.85C74.9719 25.25 74.4052 23.3833 73.2719 22.25C72.1719 21.1167 70.7719 20.55 69.0719 20.55C67.5052 20.55 66.1552 21.1333 65.0219 22.3C63.8885 23.4333 63.3219 25.2667 63.3219 27.8V41.85C63.3219 42.1833 63.2052 42.4667 62.9719 42.7C62.7719 42.9 62.5052 43 62.1719 43H59.7719Z" fill="white"/>
</svg>
