<svg  viewBox="0 0 1418 619" fill="none" xmlns="http://www.w3.org/2000/svg">
<path id="dark-option" d="M630.656 52.48C626.304 52.48 622.912 51.376 620.48 49.168C618.048 46.96 616.768 43.68 616.64 39.328C616.608 38.4 616.592 37.04 616.592 35.248C616.592 33.424 616.608 32.048 616.64 31.12C616.768 26.864 618.08 23.6 620.576 21.328C623.072 19.056 626.432 17.92 630.656 17.92C634.88 17.92 638.24 19.056 640.736 21.328C643.264 23.6 644.592 26.864 644.72 31.12C644.784 32.976 644.816 34.352 644.816 35.248C644.816 36.112 644.784 37.472 644.72 39.328C644.56 43.68 643.264 46.96 640.832 49.168C638.4 51.376 635.008 52.48 630.656 52.48ZM630.656 46.96C632.8 46.96 634.512 46.32 635.792 45.04C637.072 43.728 637.76 41.744 637.856 39.088C637.92 37.168 637.952 35.872 637.952 35.2C637.952 34.464 637.92 33.168 637.856 31.312C637.76 28.656 637.072 26.688 635.792 25.408C634.512 24.096 632.8 23.44 630.656 23.44C628.544 23.44 626.848 24.096 625.568 25.408C624.288 26.688 623.6 28.656 623.504 31.312C623.472 32.24 623.456 33.536 623.456 35.2C623.456 36.832 623.472 38.128 623.504 39.088C623.6 41.744 624.272 43.728 625.52 45.04C626.8 46.32 628.512 46.96 630.656 46.96ZM661.583 52.48C657.839 52.48 654.943 51.52 652.895 49.6C650.847 47.648 649.743 44.992 649.583 41.632L649.535 39.52L649.583 37.408C649.743 34.08 650.863 31.44 652.943 29.488C655.023 27.536 657.903 26.56 661.583 26.56C665.263 26.56 668.143 27.536 670.223 29.488C672.303 31.44 673.423 34.08 673.583 37.408C673.615 37.792 673.631 38.496 673.631 39.52C673.631 40.544 673.615 41.248 673.583 41.632C673.423 44.992 672.319 47.648 670.271 49.6C668.223 51.52 665.327 52.48 661.583 52.48ZM661.583 47.728C663.279 47.728 664.591 47.2 665.519 46.144C666.447 45.056 666.959 43.472 667.055 41.392C667.087 41.072 667.103 40.448 667.103 39.52C667.103 38.592 667.087 37.968 667.055 37.648C666.959 35.568 666.447 34 665.519 32.944C664.591 31.856 663.279 31.312 661.583 31.312C659.887 31.312 658.575 31.856 657.647 32.944C656.719 34 656.207 35.568 656.111 37.648L656.063 39.52L656.111 41.392C656.207 43.472 656.719 45.056 657.647 46.144C658.575 47.2 659.887 47.728 661.583 47.728ZM689.989 52.48C686.245 52.48 683.349 51.52 681.301 49.6C679.253 47.648 678.149 44.992 677.989 41.632L677.941 39.52L677.989 37.408C678.149 34.08 679.269 31.44 681.349 29.488C683.429 27.536 686.309 26.56 689.989 26.56C693.669 26.56 696.549 27.536 698.629 29.488C700.709 31.44 701.829 34.08 701.989 37.408C702.021 37.792 702.037 38.496 702.037 39.52C702.037 40.544 702.021 41.248 701.989 41.632C701.829 44.992 700.725 47.648 698.677 49.6C696.629 51.52 693.733 52.48 689.989 52.48ZM689.989 47.728C691.685 47.728 692.997 47.2 693.925 46.144C694.853 45.056 695.365 43.472 695.461 41.392C695.493 41.072 695.509 40.448 695.509 39.52C695.509 38.592 695.493 37.968 695.461 37.648C695.365 35.568 694.853 34 693.925 32.944C692.997 31.856 691.685 31.312 689.989 31.312C688.293 31.312 686.981 31.856 686.053 32.944C685.125 34 684.613 35.568 684.517 37.648L684.469 39.52L684.517 41.392C684.613 43.472 685.125 45.056 686.053 46.144C686.981 47.2 688.293 47.728 689.989 47.728ZM708.556 61.12C708.236 61.12 707.964 61.008 707.74 60.784C707.516 60.592 707.404 60.32 707.404 59.968V28.192C707.404 27.84 707.516 27.568 707.74 27.376C707.964 27.152 708.236 27.04 708.556 27.04H712.348C712.7 27.04 712.972 27.152 713.164 27.376C713.388 27.568 713.5 27.84 713.5 28.192V30.112C715.292 27.744 717.852 26.56 721.18 26.56C724.412 26.56 726.892 27.584 728.62 29.632C730.348 31.648 731.276 34.384 731.404 37.84C731.436 38.224 731.452 38.784 731.452 39.52C731.452 40.288 731.436 40.864 731.404 41.248C731.276 44.608 730.348 47.328 728.62 49.408C726.892 51.456 724.412 52.48 721.18 52.48C717.948 52.48 715.484 51.344 713.788 49.072V59.968C713.788 60.32 713.676 60.592 713.452 60.784C713.26 61.008 712.988 61.12 712.636 61.12H708.556ZM719.404 47.344C722.86 47.344 724.7 45.216 724.924 40.96C724.956 40.64 724.972 40.16 724.972 39.52C724.972 38.88 724.956 38.4 724.924 38.08C724.7 33.824 722.86 31.696 719.404 31.696C717.548 31.696 716.172 32.288 715.276 33.472C714.38 34.656 713.884 36.112 713.788 37.84L713.74 39.664L713.788 41.536C713.852 43.136 714.348 44.512 715.276 45.664C716.236 46.784 717.612 47.344 719.404 47.344ZM746.296 52.48C743.896 52.48 741.88 52.128 740.248 51.424C738.616 50.688 737.4 49.84 736.6 48.88C735.832 47.888 735.448 47.04 735.448 46.336C735.448 46.016 735.56 45.76 735.784 45.568C736.008 45.376 736.264 45.28 736.552 45.28H740.344C740.632 45.28 740.872 45.392 741.064 45.616C741.192 45.712 741.528 46 742.072 46.48C742.616 46.992 743.256 47.392 743.992 47.68C744.728 47.968 745.544 48.112 746.44 48.112C747.72 48.112 748.776 47.856 749.608 47.344C750.44 46.832 750.856 46.128 750.856 45.232C750.856 44.56 750.664 44.016 750.28 43.6C749.928 43.184 749.272 42.816 748.312 42.496C747.352 42.144 745.928 41.776 744.04 41.392C741.32 40.816 739.304 39.936 737.992 38.752C736.712 37.568 736.072 36 736.072 34.048C736.072 32.768 736.456 31.568 737.224 30.448C737.992 29.296 739.128 28.368 740.632 27.664C742.168 26.928 743.992 26.56 746.104 26.56C748.248 26.56 750.104 26.912 751.672 27.616C753.24 28.288 754.424 29.104 755.224 30.064C756.056 30.992 756.472 31.824 756.472 32.56C756.472 32.848 756.36 33.104 756.136 33.328C755.944 33.52 755.704 33.616 755.416 33.616H751.864C751.608 33.616 751.336 33.504 751.048 33.28C750.824 33.12 750.472 32.816 749.992 32.368C749.512 31.92 748.952 31.568 748.312 31.312C747.672 31.056 746.92 30.928 746.056 30.928C744.872 30.928 743.944 31.184 743.272 31.696C742.632 32.208 742.312 32.88 742.312 33.712C742.312 34.32 742.472 34.816 742.792 35.2C743.112 35.584 743.736 35.952 744.664 36.304C745.592 36.656 746.984 37.008 748.84 37.36C751.912 37.968 754.104 38.912 755.416 40.192C756.76 41.472 757.432 43.04 757.432 44.896C757.432 47.136 756.456 48.96 754.504 50.368C752.552 51.776 749.816 52.48 746.296 52.48ZM763.683 42.688C763.363 42.688 763.091 42.576 762.867 42.352C762.643 42.128 762.531 41.856 762.531 41.536V19.552C762.531 19.232 762.643 18.96 762.867 18.736C763.091 18.512 763.363 18.4 763.683 18.4H767.571C767.923 18.4 768.195 18.512 768.387 18.736C768.611 18.928 768.723 19.2 768.723 19.552V41.536C768.723 41.856 768.611 42.128 768.387 42.352C768.195 42.576 767.923 42.688 767.571 42.688H763.683ZM763.395 52C763.075 52 762.803 51.888 762.579 51.664C762.355 51.44 762.243 51.168 762.243 50.848V46.384C762.243 46.032 762.355 45.744 762.579 45.52C762.803 45.296 763.075 45.184 763.395 45.184H767.859C768.211 45.184 768.499 45.296 768.723 45.52C768.947 45.744 769.059 46.032 769.059 46.384V50.848C769.059 51.168 768.947 51.44 768.723 51.664C768.499 51.888 768.211 52 767.859 52H763.395Z" fill="#252525"/>
<path id="dark-option" d="M649.672 122C649.432 122 649.228 121.916 649.06 121.748C648.892 121.58 648.808 121.376 648.808 121.136V97.7C648.808 97.436 648.88 97.22 649.024 97.052C649.192 96.884 649.408 96.8 649.672 96.8H665.512C665.776 96.8 665.992 96.884 666.16 97.052C666.328 97.22 666.412 97.436 666.412 97.7V100.076C666.412 100.34 666.328 100.556 666.16 100.724C665.992 100.868 665.776 100.94 665.512 100.94H653.668V107.312H664.72C664.984 107.312 665.2 107.396 665.368 107.564C665.536 107.708 665.62 107.912 665.62 108.176V110.408C665.62 110.672 665.536 110.888 665.368 111.056C665.2 111.2 664.984 111.272 664.72 111.272H653.668V117.86H665.8C666.064 117.86 666.28 117.944 666.448 118.112C666.616 118.28 666.7 118.496 666.7 118.76V121.136C666.7 121.4 666.616 121.616 666.448 121.784C666.28 121.928 666.064 122 665.8 122H649.672ZM671.635 122C671.395 122 671.191 121.916 671.023 121.748C670.855 121.58 670.771 121.376 670.771 121.136V104.18C670.771 103.94 670.855 103.736 671.023 103.568C671.191 103.376 671.395 103.28 671.635 103.28H674.551C674.815 103.28 675.031 103.364 675.199 103.532C675.367 103.7 675.451 103.916 675.451 104.18V105.656C676.027 104.888 676.747 104.3 677.611 103.892C678.499 103.484 679.507 103.28 680.635 103.28H682.111C682.375 103.28 682.579 103.364 682.723 103.532C682.891 103.676 682.975 103.88 682.975 104.144V106.736C682.975 106.976 682.891 107.18 682.723 107.348C682.579 107.516 682.375 107.6 682.111 107.6H679.303C678.175 107.6 677.287 107.924 676.639 108.572C675.991 109.22 675.667 110.108 675.667 111.236V121.136C675.667 121.376 675.583 121.58 675.415 121.748C675.247 121.916 675.031 122 674.767 122H671.635ZM686.646 122C686.406 122 686.202 121.916 686.034 121.748C685.866 121.58 685.782 121.376 685.782 121.136V104.18C685.782 103.94 685.866 103.736 686.034 103.568C686.202 103.376 686.406 103.28 686.646 103.28H689.562C689.826 103.28 690.042 103.364 690.21 103.532C690.378 103.7 690.462 103.916 690.462 104.18V105.656C691.038 104.888 691.758 104.3 692.622 103.892C693.51 103.484 694.518 103.28 695.646 103.28H697.122C697.386 103.28 697.59 103.364 697.734 103.532C697.902 103.676 697.986 103.88 697.986 104.144V106.736C697.986 106.976 697.902 107.18 697.734 107.348C697.59 107.516 697.386 107.6 697.122 107.6H694.314C693.186 107.6 692.298 107.924 691.65 108.572C691.002 109.22 690.678 110.108 690.678 111.236V121.136C690.678 121.376 690.594 121.58 690.426 121.748C690.258 121.916 690.042 122 689.778 122H686.646ZM708.828 122.36C706.02 122.36 703.848 121.64 702.312 120.2C700.776 118.736 699.948 116.744 699.828 114.224L699.792 112.64L699.828 111.056C699.948 108.56 700.788 106.58 702.348 105.116C703.908 103.652 706.068 102.92 708.828 102.92C711.588 102.92 713.748 103.652 715.308 105.116C716.868 106.58 717.708 108.56 717.828 111.056C717.852 111.344 717.864 111.872 717.864 112.64C717.864 113.408 717.852 113.936 717.828 114.224C717.708 116.744 716.88 118.736 715.344 120.2C713.808 121.64 711.636 122.36 708.828 122.36ZM708.828 118.796C710.1 118.796 711.084 118.4 711.78 117.608C712.476 116.792 712.86 115.604 712.932 114.044C712.956 113.804 712.968 113.336 712.968 112.64C712.968 111.944 712.956 111.476 712.932 111.236C712.86 109.676 712.476 108.5 711.78 107.708C711.084 106.892 710.1 106.484 708.828 106.484C707.556 106.484 706.572 106.892 705.876 107.708C705.18 108.5 704.796 109.676 704.724 111.236L704.688 112.64L704.724 114.044C704.796 115.604 705.18 116.792 705.876 117.608C706.572 118.4 707.556 118.796 708.828 118.796ZM722.717 122C722.477 122 722.273 121.916 722.105 121.748C721.937 121.58 721.853 121.376 721.853 121.136V104.18C721.853 103.94 721.937 103.736 722.105 103.568C722.273 103.376 722.477 103.28 722.717 103.28H725.633C725.897 103.28 726.113 103.364 726.281 103.532C726.449 103.7 726.533 103.916 726.533 104.18V105.656C727.109 104.888 727.829 104.3 728.693 103.892C729.581 103.484 730.589 103.28 731.717 103.28H733.193C733.457 103.28 733.661 103.364 733.805 103.532C733.973 103.676 734.057 103.88 734.057 104.144V106.736C734.057 106.976 733.973 107.18 733.805 107.348C733.661 107.516 733.457 107.6 733.193 107.6H730.385C729.257 107.6 728.369 107.924 727.721 108.572C727.073 109.22 726.749 110.108 726.749 111.236V121.136C726.749 121.376 726.665 121.58 726.497 121.748C726.329 121.916 726.113 122 725.849 122H722.717Z" fill="#252525"/>
<path d="M837.911 579.032C837.911 579.032 714.637 571.889 741.472 468.17" stroke="#2A4074" stroke-width="5" stroke-miterlimit="10"/>
<path d="M856.081 607.605C848.533 604.462 842.663 597.033 844.9 586.461C847.695 573.032 860.274 569.317 870.337 573.032C867.262 566.174 860.833 560.745 853.006 559.031C839.588 556.174 826.45 565.031 823.655 578.746C820.86 592.461 829.525 605.89 842.943 608.747C847.136 609.605 851.888 609.319 856.081 607.605Z" fill="#2D2A44"/>
<path d="M567.881 113.867C566.484 122.153 569.838 131.011 579.622 134.725C592.48 139.297 601.984 130.439 604.22 119.867C608.413 126.439 609.531 134.44 606.736 142.44C601.984 155.583 587.728 162.441 574.869 157.584C562.011 152.726 555.302 138.154 560.054 125.011C561.731 120.439 564.247 116.724 567.881 113.867Z" fill="#2D2A44"/>
<path d="M585.495 146.727C585.495 146.727 526.514 305.877 607.578 348.165" stroke="#2A4074" stroke-width="5" stroke-miterlimit="10"/>
<path d="M830.641 113.867C832.039 122.153 828.684 131.011 818.901 134.725C806.042 139.297 796.538 130.439 794.302 119.867C790.109 126.439 788.991 134.44 791.786 142.44C796.538 155.583 810.794 162.441 823.653 157.584C836.511 152.726 843.22 138.154 838.468 125.011C836.791 120.439 833.995 116.724 830.641 113.867Z" fill="#2D2A44"/>
<path d="M0 114.725H567.882" stroke="#2A4074" stroke-width="3" stroke-miterlimit="10"/>
<path d="M600.027 88.7236V94.1525H582.976L569.279 108.153L553.904 109.296V120.725L569.558 122.44L583.814 135.869H600.586V140.726H608.134V88.7236H600.027Z" fill="#2A4074"/>
<path d="M805.484 104.724C805.484 106.153 804.366 107.582 802.689 107.582H766.35C764.952 107.582 763.555 106.439 763.555 104.724C763.555 103.296 764.673 101.867 766.35 101.867H802.689C804.366 101.867 805.484 103.01 805.484 104.724Z" fill="#2A4074"/>
<path d="M805.484 124.725C805.484 126.154 804.366 127.582 802.689 127.582H766.35C764.952 127.582 763.555 126.439 763.555 124.725V124.439C763.555 123.011 764.673 121.582 766.35 121.582H802.689C804.366 121.868 805.484 123.011 805.484 124.725Z" fill="#2A4074"/>
<path d="M1417.66 114.724H827.846" stroke="#2A4074" stroke-width="3" stroke-miterlimit="10"/>
<path d="M794.023 88.7236V94.1525H811.633L825.889 108.153L842.102 109.296L841.823 120.725L825.889 122.44L811.074 135.869H793.464V140.726H785.637V88.7236H794.023Z" fill="#2A4074"/>
<path d="M593.881 591.318C593.881 591.318 714.08 562.173 669.634 464.74" stroke="#2A4074" stroke-width="5" stroke-miterlimit="10"/>
<path d="M561.174 588.462C567.603 583.319 576.828 581.89 584.655 589.319C594.718 598.462 591.643 611.606 583.536 618.463C591.084 619.035 598.631 616.177 603.942 610.177C613.167 599.605 612.328 583.604 601.986 574.175C591.643 564.746 575.989 565.603 567.044 576.175C563.969 579.89 562.012 584.176 561.174 588.462Z" fill="#2D2A44"/>
<path d="M695.629 196.158L713.519 330.45H679.695L693.392 196.158H695.629Z" fill="#2D2A44"/>
<path d="M693.391 260.16C711.763 260.16 726.656 244.937 726.656 226.159C726.656 207.38 711.763 192.157 693.391 192.157C675.02 192.157 660.127 207.38 660.127 226.159C660.127 244.937 675.02 260.16 693.391 260.16Z" fill="#2A4074"/>
<path d="M693.391 251.302C706.668 251.302 717.431 240.044 717.431 226.158C717.431 212.271 706.668 201.014 693.391 201.014C680.115 201.014 669.352 212.271 669.352 226.158C669.352 240.044 680.115 251.302 693.391 251.302Z" fill="#2579F6"/>
<path d="M693.393 201.014C691.996 201.014 690.877 201.014 689.759 201.299C712.401 208.728 710.165 247.873 683.33 249.016C686.405 250.445 689.759 251.302 693.673 251.302C707.09 251.302 717.712 239.873 717.712 226.158C717.712 212.157 706.811 201.014 693.393 201.014Z" fill="#2579F6"/>
<path d="M693.669 231.873C697.22 231.873 700.099 228.931 700.099 225.301C700.099 221.672 697.22 218.729 693.669 218.729C690.119 218.729 687.24 221.672 687.24 225.301C687.24 228.931 690.119 231.873 693.669 231.873Z" fill="#2A4074"/>
<path d="M501.635 451.313C501.635 451.313 575.431 350.166 645.314 430.455" stroke="#2A4074" stroke-width="5" stroke-miterlimit="10"/>
<path d="M917.853 459.028C917.853 459.028 864.742 345.022 780.883 409.882" stroke="#2A4074" stroke-width="5" stroke-miterlimit="10"/>
<path d="M813.032 146.727C813.032 146.727 872.013 305.877 790.949 348.165" stroke="#2A4074" stroke-width="5" stroke-miterlimit="10"/>
<path d="M781.165 373.88C794.905 373.88 806.044 362.495 806.044 348.45C806.044 334.406 794.905 323.021 781.165 323.021C767.426 323.021 756.287 334.406 756.287 348.45C756.287 362.495 767.426 373.88 781.165 373.88Z" fill="#2D2A44"/>
<path d="M468.369 450.741C475.078 445.883 484.302 445.312 491.85 453.026C501.354 463.027 497.44 475.599 488.775 482.171C496.322 483.314 504.149 481.028 509.74 475.027C519.523 465.313 519.523 449.026 510.019 439.026C500.515 429.025 484.582 429.025 474.798 438.74C471.444 442.454 469.487 446.455 468.369 450.741Z" fill="#2D2A44"/>
<path d="M781.165 437.312C794.905 437.312 806.044 425.926 806.044 411.882C806.044 397.837 794.905 386.452 781.165 386.452C767.426 386.452 756.287 397.837 756.287 411.882C756.287 425.926 767.426 437.312 781.165 437.312Z" fill="#2D2A44"/>
<path d="M624.068 373.88C637.808 373.88 648.946 362.495 648.946 348.45C648.946 334.406 637.808 323.021 624.068 323.021C610.328 323.021 599.189 334.406 599.189 348.45C599.189 362.495 610.328 373.88 624.068 373.88Z" fill="#2D2A44"/>
<path d="M624.068 437.312C637.808 437.312 648.946 425.926 648.946 411.882C648.946 397.837 637.808 386.452 624.068 386.452C610.328 386.452 599.189 397.837 599.189 411.882C599.189 425.926 610.328 437.312 624.068 437.312Z" fill="#2D2A44"/>
<path d="M733.925 482.742C747.665 482.742 758.804 471.357 758.804 457.313C758.804 443.268 747.665 431.883 733.925 431.883C720.185 431.883 709.047 443.268 709.047 457.313C709.047 471.357 720.185 482.742 733.925 482.742Z" fill="#2D2A44"/>
<path d="M671.587 482.742C685.327 482.742 696.466 471.357 696.466 457.313C696.466 443.268 685.327 431.883 671.587 431.883C657.847 431.883 646.709 443.268 646.709 457.313C646.709 471.357 657.847 482.742 671.587 482.742Z" fill="#2D2A44"/>
<path d="M892.758 458.769H506.645V296.874H892.758V458.769Z" fill="#2D2A44"/>
<path d="M837.07 121.868H830.362C829.243 127.297 825.609 132.154 818.901 134.726C806.042 139.298 796.538 130.44 794.302 119.868C790.109 126.44 788.991 134.44 791.786 142.441C796.538 155.584 810.794 162.442 823.653 157.584C836.511 152.727 843.22 138.155 838.468 125.011C838.188 123.868 837.629 123.011 837.07 121.868Z" fill="#2D2A44"/>
<path d="M929.037 485.028C922.887 479.599 919.533 470.741 924.844 461.312C931.553 449.312 944.691 449.883 953.077 456.455C952.238 448.74 947.765 441.883 940.777 437.597C928.757 430.739 913.662 434.74 906.954 447.026C900.245 459.312 904.438 474.742 916.178 481.599C920.371 484.171 924.844 485.028 929.037 485.028Z" fill="#2D2A44"/>
<path d="M561.452 121.868H568.161C569.279 127.297 572.913 132.154 579.622 134.726C592.48 139.298 601.984 130.44 604.22 119.868C608.413 126.44 609.531 134.44 606.736 142.441C601.984 155.584 587.728 162.442 574.869 157.584C562.011 152.727 555.302 138.155 560.054 125.011C560.334 123.868 560.893 123.011 561.452 121.868Z" fill="#2D2A44"/>
<path d="M930.715 491.886L937.144 411.597C945.809 409.311 949.723 403.596 950.282 396.739C950.841 390.167 947.766 384.167 945.25 380.738L943.853 397.31L924.285 395.596L925.683 378.452C919.813 380.738 915.899 386.738 915.34 393.881C914.781 401.31 917.856 408.168 925.963 411.597L919.533 490.458C910.868 492.458 906.954 498.458 906.395 506.173C905.836 513.316 908.911 519.602 914.222 523.031L915.62 507.03L935.187 508.744L934.069 523.888C937.144 521.03 941.057 515.602 941.616 509.03C941.896 501.887 938.821 495.601 930.715 491.886Z" fill="#2579F6"/>
<path d="M444.051 390.452L475.079 455.026L481.788 451.597L450.76 387.023C452.157 385.594 452.437 383.594 451.598 381.88L444.33 366.736L432.311 372.737L439.578 387.88C440.137 389.595 442.094 390.737 444.051 390.452Z" fill="#2579F6"/>
<path d="M496.577 441.239L459.43 459.854L462.629 466.525L499.776 447.91L496.577 441.239Z" fill="#2579F6"/>
<path d="M492.444 448.609L468.098 460.81L497.014 521.1L521.361 508.9L492.444 448.609Z" fill="#2579F6"/>
<path d="M510.02 439.312C500.516 429.311 487.098 428.74 477.314 438.74C479.271 441.026 480.11 443.883 480.389 447.026C481.507 447.026 482.626 447.312 483.464 447.598C483.744 447.312 484.023 447.026 484.303 446.741C486.259 445.598 487.937 443.883 489.614 442.455C491.012 441.312 492.409 440.455 494.086 441.026C494.645 439.883 496.043 439.026 497.161 440.169L497.441 440.455C497.72 440.74 497.72 441.026 498 441.312C499.677 441.312 501.354 443.026 500.516 444.741V445.026C500.516 445.312 500.795 445.598 500.516 445.883C500.795 447.598 500.236 448.741 498.559 450.169C497.161 451.598 496.043 451.312 494.645 452.741C495.204 453.884 495.764 455.884 496.882 458.741C500.516 467.313 495.484 477.028 488.775 482.171C496.323 483.314 504.149 481.028 509.74 475.028C519.524 465.313 519.803 449.312 510.02 439.312Z" fill="#2D2A44"/>
<path d="M922.328 469.884C922.048 468.741 922.048 467.884 922.048 466.741C922.048 465.884 921.769 464.741 921.769 463.884C921.769 463.598 921.769 463.313 921.769 463.027C918.135 455.027 919.253 444.455 919.812 435.883C914.501 437.883 910.029 441.597 906.954 447.026C900.245 459.312 904.438 474.742 916.178 481.599C920.371 483.885 924.844 485.028 929.316 485.028C924.844 481.313 922.048 475.885 922.328 469.884Z" fill="#2D2A44"/>
<path d="M607.46 427C606.527 427 605.687 426.673 604.94 426.02C604.287 425.273 603.96 424.433 603.96 423.5V407.68H560.42C559.393 407.68 558.553 407.353 557.9 406.7C557.247 406.047 556.92 405.207 556.92 404.18V390.88C556.92 389.48 557.433 388.033 558.46 386.54L599.2 331.38C600.507 329.793 602.233 329 604.38 329H624.82C625.847 329 626.687 329.327 627.34 329.98C627.993 330.633 628.32 331.473 628.32 332.5V386.82H640.64C641.76 386.82 642.647 387.193 643.3 387.94C643.953 388.593 644.28 389.387 644.28 390.32V404.18C644.28 405.207 643.953 406.047 643.3 406.7C642.647 407.353 641.807 407.68 640.78 407.68H628.32V423.5C628.32 424.433 627.993 425.273 627.34 426.02C626.687 426.673 625.847 427 624.82 427H607.46ZM604.52 387.8V354.76L581 387.8H604.52ZM798.183 427C797.249 427 796.409 426.673 795.663 426.02C795.009 425.273 794.683 424.433 794.683 423.5V407.68H751.143C750.116 407.68 749.276 407.353 748.623 406.7C747.969 406.047 747.643 405.207 747.643 404.18V390.88C747.643 389.48 748.156 388.033 749.183 386.54L789.923 331.38C791.229 329.793 792.956 329 795.103 329H815.543C816.569 329 817.409 329.327 818.063 329.98C818.716 330.633 819.043 331.473 819.043 332.5V386.82H831.363C832.483 386.82 833.369 387.193 834.023 387.94C834.676 388.593 835.003 389.387 835.003 390.32V404.18C835.003 405.207 834.676 406.047 834.023 406.7C833.369 407.353 832.529 407.68 831.503 407.68H819.043V423.5C819.043 424.433 818.716 425.273 818.063 426.02C817.409 426.673 816.569 427 815.543 427H798.183ZM795.243 387.8V354.76L771.723 387.8H795.243Z" fill="white"/>
<path d="M696.026 428.4C683.146 428.307 673.393 424.9 666.766 418.18C660.14 411.367 656.546 402.453 655.986 391.44C655.8 386.4 655.706 381.92 655.706 378C655.706 373.987 655.8 369.367 655.986 364.14C656.36 357.14 658.04 350.933 661.026 345.52C664.106 340.013 668.586 335.673 674.466 332.5C680.346 329.233 687.533 327.6 696.026 327.6C708.626 327.693 718.333 331.1 725.146 337.82C731.96 344.54 735.646 353.313 736.206 364.14C736.393 369.367 736.486 373.987 736.486 378C736.486 381.92 736.393 386.4 736.206 391.44C735.553 402.453 731.913 411.367 725.286 418.18C718.66 424.9 708.906 428.307 696.026 428.4ZM696.026 408.1C700.6 408.1 704.006 406.607 706.246 403.62C708.58 400.54 709.84 396.247 710.026 390.74C710.213 388.033 710.306 383.693 710.306 377.72C710.306 371.747 710.213 367.5 710.026 364.98C709.84 359.66 708.626 355.46 706.386 352.38C704.146 349.3 700.693 347.713 696.026 347.62C691.453 347.713 688 349.3 685.666 352.38C683.426 355.46 682.213 359.66 682.026 364.98C681.933 367.5 681.886 371.747 681.886 377.72C681.886 383.693 681.933 388.033 682.026 390.74C682.493 402.313 687.16 408.1 696.026 408.1Z" fill="#F63C25"/>
</svg>
