<svg width="22" height="22" viewBox="0 0 22 22" fill="none" xmlns="http://www.w3.org/2000/svg">
<path d="M21.4349 1.97212C20.9023 1.26603 20.0896 0.861103 19.2052 0.861103H18.8308V0.646266C18.8308 0.290322 18.5422 0.00175195 18.1862 0.00175195C17.8303 0.00175195 17.5417 0.290322 17.5417 0.646266V2.36497C17.5417 2.72091 17.8303 3.00948 18.1862 3.00948C18.5422 3.00948 18.8308 2.72091 18.8308 2.36497V2.15013H19.2052C19.6814 2.15013 20.119 2.36819 20.4058 2.74837C20.6925 3.12855 20.782 3.60922 20.6512 4.06713L18.9405 10.0543C18.4632 11.7251 16.9162 12.892 15.1785 12.892C13.4409 12.892 11.8939 11.7251 11.4165 10.0543L9.7059 4.06709C9.57507 3.60918 9.66452 3.1285 9.95129 2.74833C10.2381 2.36811 10.6757 2.15009 11.1519 2.15009H11.5263V2.36493C11.5263 2.72087 11.8148 3.00944 12.1708 3.00944C12.5267 3.00944 12.8153 2.72087 12.8153 2.36493V0.646223C12.8153 0.290279 12.5267 0.00170898 12.1708 0.00170898C11.8148 0.00170898 11.5263 0.290279 11.5263 0.646223V0.861061H11.1519C10.2675 0.861061 9.45476 1.26603 8.92217 1.97207C8.38955 2.67816 8.22348 3.57081 8.46646 4.42118L10.1771 10.4084C10.4901 11.504 11.1365 12.4459 12.0462 13.1321C12.2412 13.2792 12.4445 13.4104 12.6543 13.5274L14.534 17.9641V18.4293C14.534 19.688 13.51 20.7121 12.2513 20.7121C10.9925 20.7121 9.96848 19.688 9.96848 18.4293V14.0091C9.96848 11.9716 8.31079 10.3139 6.27327 10.3139C4.23574 10.3139 2.57805 11.9716 2.57805 14.0091V15.5349C1.10891 15.8343 0 17.1363 0 18.6926C0 20.4695 1.44564 21.9152 3.22257 21.9152C4.99949 21.9152 6.44514 20.4695 6.44514 18.6926C6.44514 17.1364 5.33623 15.8343 3.86708 15.5349V14.0091C3.86708 12.6824 4.94651 11.603 6.27327 11.603C7.60002 11.603 8.67945 12.6824 8.67945 14.0091V18.4293C8.67945 20.3988 10.2818 22.0011 12.2513 22.0011C14.2208 22.0011 15.8231 20.3988 15.8231 18.4293V17.9641L17.7029 13.5274C17.9126 13.4104 18.116 13.2792 18.3109 13.1321C19.2206 12.4459 19.867 11.504 20.18 10.4084L21.8906 4.42118C22.1336 3.57085 21.9675 2.67816 21.4349 1.97212ZM5.15611 18.6926C5.15611 19.7588 4.28872 20.6261 3.22257 20.6261C2.15641 20.6261 1.28903 19.7588 1.28903 18.6926C1.28903 17.6264 2.15641 16.7591 3.22257 16.7591C4.28872 16.7591 5.15611 17.6264 5.15611 18.6926ZM15.1786 16.1811L14.2998 14.1069C14.5875 14.1557 14.8811 14.181 15.1786 14.181C15.4761 14.181 15.7696 14.1557 16.0574 14.1069L15.1786 16.1811Z" fill="white"/>
<path d="M3.22266 19.3357C3.57862 19.3357 3.86719 19.0471 3.86719 18.6912C3.86719 18.3352 3.57862 18.0466 3.22266 18.0466C2.86669 18.0466 2.57812 18.3352 2.57812 18.6912C2.57812 19.0471 2.86669 19.3357 3.22266 19.3357Z" fill="white"/>
</svg>
