<svg width="20" height="20" viewBox="0 0 20 20" fill="none" xmlns="http://www.w3.org/2000/svg">
<g clip-path="url(#clip0)">
<path d="M10.1428 9.63406C8.81921 9.63406 7.67313 9.15936 6.73669 8.22278C5.80026 7.28635 5.32556 6.14057 5.32556 4.81688C5.32556 3.49364 5.80026 2.34771 6.73685 1.41097C7.67343 0.474699 8.81937 0 10.1428 0C11.4665 0 12.6122 0.474699 13.5487 1.41113C14.4851 2.34756 14.96 3.49349 14.96 4.81688C14.96 6.14057 14.4851 7.2865 13.5485 8.22293C12.6119 9.1592 11.466 9.63406 10.1428 9.63406Z" fill="#BCBCBC"/>
<path d="M1.71371 15.3793C1.74072 14.9896 1.79535 14.5645 1.87576 14.1156C1.95694 13.6633 2.06146 13.2358 2.18658 12.845C2.31583 12.4411 2.49161 12.0423 2.70889 11.66C2.93442 11.2633 3.19931 10.9178 3.49655 10.6336C3.80737 10.3362 4.18793 10.0971 4.62799 9.92267C5.06653 9.74918 5.55252 9.66129 6.07239 9.66129C6.27655 9.66129 6.474 9.74506 6.85532 9.99332C7.09 10.1464 7.3645 10.3234 7.6709 10.5191C7.93289 10.6861 8.28781 10.8425 8.7262 10.9841C9.1539 11.1225 9.58817 11.1927 10.0168 11.1927C10.4454 11.1927 10.8795 11.1225 11.3077 10.9841C11.7456 10.8426 12.1005 10.6862 12.3622 10.5193C12.6657 10.3253 12.9404 10.1483 13.1786 9.99316C13.5594 9.7449 13.757 9.66113 13.9612 9.66113C14.4812 9.66113 14.967 9.74918 15.4054 9.92282C15.8452 10.0969 16.2259 10.336 16.537 10.6337C16.8341 10.9181 17.0992 11.2635 17.3244 11.66C17.5415 12.0423 17.7173 12.441 17.8467 12.8452C17.9716 13.2359 18.0762 13.6633 18.1573 14.1156C18.2378 14.5639 18.2924 14.9892 18.3194 15.3798C18.3459 15.7625 18.3594 16.1597 18.3594 16.5608C18.3594 17.6048 18.0275 18.45 17.373 19.0733C16.7267 19.6884 15.8714 20.0004 14.8314 20.0004H5.20126C4.16122 20.0004 3.30627 19.6886 2.65976 19.0733C2.00516 18.4505 1.67328 17.6051 1.67328 16.5607C1.67343 16.1577 1.68701 15.7602 1.71371 15.3793Z" fill="#BCBCBC"/>
</g>
<defs>
<clipPath id="clip0">
<rect width="20" height="20" fill="white" transform="matrix(-1 0 0 1 20 0)"/>
</clipPath>
</defs>
</svg>
