<svg width="191" height="54" viewBox="0 0 191 54" fill="none" xmlns="http://www.w3.org/2000/svg">
<path d="M117.159 11.5674H111.049C110.322 11.5674 109.74 12.0562 109.449 12.8708L103.339 31.2813L97.3741 12.8708C97.0832 12.0562 96.6467 11.5674 95.7739 11.5674H89.6638C89.3729 11.5674 89.0819 11.7303 88.791 11.8932C88.5 12.2191 88.5 12.5449 88.5 12.8708L88.6455 13.3596L98.8289 41.2197C98.9744 41.7085 99.2653 42.0343 99.5563 42.3602C99.8472 42.686 100.138 42.686 100.72 42.686H106.394C106.83 42.686 107.267 42.5231 107.558 42.3602C107.848 42.1973 108.139 41.7085 108.285 41.2197L118.468 13.3596L118.614 12.8708C118.614 12.5449 118.468 12.2191 118.177 11.8932C117.741 11.7303 117.45 11.5674 117.159 11.5674Z" fill="#252525"/>
<path d="M161.821 0.162598H155.565C155.274 0.162598 154.838 0.325521 154.692 0.651369C154.401 0.977217 154.256 1.30306 154.256 1.79184V41.3823C154.256 41.7082 154.401 42.1969 154.692 42.3599C154.983 42.5228 155.274 42.8486 155.565 42.8486H161.821C162.257 42.8486 162.548 42.6857 162.839 42.3599C163.13 42.034 163.275 41.7082 163.275 41.2194V1.62891C163.275 1.14014 163.13 0.814293 162.839 0.488445C162.548 0.325521 162.257 0.162598 161.821 0.162598Z" fill="#252525"/>
<path d="M189.752 35.0288C189.461 34.7029 189.17 34.54 188.734 34.54H184.66C182.624 34.54 181.605 33.0737 181.605 30.141V19.5509H188.297C188.734 19.5509 189.025 19.388 189.316 19.0622C189.607 18.7363 189.752 18.4105 189.752 17.9217V13.034C189.752 12.5452 189.607 12.2193 189.316 11.8935C189.025 11.5676 188.734 11.4047 188.297 11.4047H181.605V1.62924C181.605 1.14047 181.46 0.814622 181.169 0.488773C180.878 0.162924 180.587 0 180.151 0H173.895C173.604 0 173.168 0.162924 173.022 0.488773C172.731 0.814622 172.586 1.14047 172.586 1.62924V11.5676H168.367C167.93 11.5676 167.64 11.7306 167.349 12.0564C167.058 12.3823 166.912 12.7081 166.912 13.1969V18.0846C166.912 18.5734 167.058 18.8992 167.349 19.2251C167.64 19.5509 167.93 19.7139 168.367 19.7139H172.586V30.9556C172.586 38.776 176.223 42.8491 183.642 42.8491H188.588C189.025 42.8491 189.316 42.6862 189.607 42.3603C189.898 42.0345 190.043 41.7087 190.043 41.3828V36.1692C190.043 35.6805 190.043 35.3546 189.752 35.0288Z" fill="#252525"/>
<path d="M121.232 34.54C121.523 33.3996 121.96 32.422 122.251 31.4445C122.978 29.1635 123.705 26.8825 124.578 24.6016L128.07 14.8261L131.707 19.7138C132.434 18.8992 133.452 18.5733 134.762 18.5733C135.198 18.5733 135.635 18.5733 136.071 18.7363C136.653 17.4329 137.235 16.2924 137.962 14.989C138.544 14.0114 139.126 12.871 139.562 11.8934C138.108 11.5676 136.507 11.2417 134.762 11.2417C130.543 11.2417 127.051 12.3822 124.578 14.8261C122.105 17.2699 120.796 20.5284 120.505 24.7645C120.505 25.2533 120.505 26.2308 120.505 27.5342C120.505 28.8376 120.505 29.6523 120.505 30.304C120.505 31.6074 120.796 33.0737 121.232 34.54Z" fill="#252525"/>
<path d="M147.854 19.2251C147.709 19.388 147.709 19.7139 147.563 19.8768C146.4 23.1353 145.381 26.068 144.218 29.0006C143.199 31.6074 142.035 34.5401 140.435 37.9615L138.253 43.0122C141.017 42.5234 143.199 41.383 144.945 39.7537C147.273 37.4727 148.582 34.0513 148.873 29.8152C148.873 29.3265 148.873 28.3489 148.873 27.0455C148.873 25.7421 148.873 24.9275 148.873 24.2758C148.727 22.6465 148.436 20.8544 147.854 19.2251Z" fill="#252525"/>
<path d="M128.651 42.5232C129.961 43.012 131.415 43.3379 133.016 43.3379L130.397 39.1016C129.815 40.2421 129.233 41.3827 128.651 42.5232Z" fill="#252525"/>
<path d="M144.945 7.98217C144.508 8.63387 144.217 9.28556 143.781 9.93726C143.199 10.9148 142.763 11.7294 142.181 12.707C141.453 13.8475 140.871 15.1509 140.29 16.2913C139.562 17.5947 138.98 18.8981 138.253 20.3644C137.671 21.6678 136.944 22.9712 136.362 24.2746C136.216 24.4376 136.216 24.6005 136.071 24.9263C135.489 26.2297 134.907 27.3702 134.47 28.6736C133.889 27.859 133.307 27.0444 132.725 26.3927C132.434 26.0668 132.143 25.578 131.852 25.2522L130.106 22.8083L128.797 21.0161L127.197 25.741C126.469 28.0219 125.596 30.3028 124.869 32.5838C124.287 34.5389 123.705 36.494 122.978 38.4491C122.832 38.7749 122.832 39.1008 122.687 39.4266C122.396 40.2413 122.25 41.2188 121.959 42.0334C121.523 43.4997 121.087 44.9661 120.796 46.4324C120.505 47.5729 120.214 48.7133 119.923 50.0167C119.632 51.1572 119.341 52.4606 119.195 53.6011C119.777 52.6235 120.505 51.646 121.087 50.5055C121.668 49.528 122.25 48.3875 122.832 47.4099C123.414 46.2695 123.996 45.2919 124.578 44.1514C125.014 43.1739 125.596 42.1963 126.033 41.3817L126.178 41.2188C127.197 39.1008 128.36 36.9828 129.379 34.8647C129.67 34.376 129.961 33.7243 130.106 33.2355C130.979 34.7018 131.852 36.0052 132.725 37.4715L135.634 42.0334L137.962 36.8198C139.271 33.8872 140.435 30.9545 141.599 28.0219C142.763 25.0893 143.927 21.9937 144.945 19.061C145.236 18.0835 145.672 17.1059 145.963 16.1284C146.4 14.9879 146.691 13.8475 146.982 12.707C147.272 11.7294 147.563 10.9148 147.854 9.93726C148.291 8.30802 148.727 6.84169 149.164 5.21245C149.6 3.5832 149.891 1.95395 150.182 0.324707C149.164 1.6281 148.291 2.9315 147.418 4.2349C146.545 5.21245 145.672 6.67877 144.945 7.98217Z" fill="#F63C25" class="power"/>
<path d="M5.548 41C5.29467 41 5.07933 40.9113 4.902 40.734C4.72467 40.5567 4.636 40.3413 4.636 40.088V25.268H1.558C1.30467 25.268 1.08933 25.1793 0.912 25.002C0.734667 24.8247 0.646 24.6093 0.646 24.356V22.152C0.646 21.8987 0.734667 21.6833 0.912 21.506C1.08933 21.3287 1.30467 21.24 1.558 21.24H4.636V19.682C4.636 18.162 4.91467 16.908 5.472 15.92C6.02933 14.9067 6.85267 14.1467 7.942 13.64C9.03133 13.1333 10.412 12.88 12.084 12.88H14.668C14.9467 12.88 15.162 12.9687 15.314 13.146C15.4913 13.3233 15.58 13.5387 15.58 13.792V15.996C15.58 16.2493 15.4913 16.4647 15.314 16.642C15.162 16.8193 14.9467 16.908 14.668 16.908H12.236C11.2227 16.908 10.526 17.1613 10.146 17.668C9.766 18.1747 9.576 18.9093 9.576 19.872V21.24H14.288C14.5667 21.24 14.782 21.3287 14.934 21.506C15.1113 21.6833 15.2 21.8987 15.2 22.152V24.356C15.2 24.6093 15.1113 24.8247 14.934 25.002C14.782 25.1793 14.5667 25.268 14.288 25.268H9.576V40.088C9.576 40.3413 9.48733 40.5567 9.31 40.734C9.13267 40.9113 8.91733 41 8.664 41H5.548ZM26.6855 41.38C24.6588 41.38 22.9488 41.0253 21.5555 40.316C20.1875 39.6067 19.1362 38.606 18.4015 37.314C17.6922 36.022 17.2868 34.5147 17.1855 32.792C17.1602 32.336 17.1475 31.7787 17.1475 31.12C17.1475 30.4613 17.1602 29.904 17.1855 29.448C17.2868 27.7 17.7048 26.1927 18.4395 24.926C19.1995 23.634 20.2635 22.6333 21.6315 21.924C23.0248 21.2147 24.7095 20.86 26.6855 20.86C28.6615 20.86 30.3335 21.2147 31.7015 21.924C33.0948 22.6333 34.1588 23.634 34.8935 24.926C35.6535 26.1927 36.0842 27.7 36.1855 29.448C36.2108 29.904 36.2235 30.4613 36.2235 31.12C36.2235 31.7787 36.2108 32.336 36.1855 32.792C36.0842 34.5147 35.6662 36.022 34.9315 37.314C34.2222 38.606 33.1708 39.6067 31.7775 40.316C30.4095 41.0253 28.7122 41.38 26.6855 41.38ZM26.6855 37.618C28.0282 37.618 29.0668 37.2 29.8015 36.364C30.5362 35.5027 30.9415 34.2487 31.0175 32.602C31.0428 32.222 31.0555 31.728 31.0555 31.12C31.0555 30.512 31.0428 30.018 31.0175 29.638C30.9415 28.0167 30.5362 26.7753 29.8015 25.914C29.0668 25.0527 28.0282 24.622 26.6855 24.622C25.3428 24.622 24.3042 25.0527 23.5695 25.914C22.8348 26.7753 22.4295 28.0167 22.3535 29.638C22.3282 30.018 22.3155 30.512 22.3155 31.12C22.3155 31.728 22.3282 32.222 22.3535 32.602C22.4295 34.2487 22.8348 35.5027 23.5695 36.364C24.3042 37.2 25.3428 37.618 26.6855 37.618ZM49.1738 41.38C47.1471 41.38 45.4371 41.0253 44.0438 40.316C42.6758 39.6067 41.6244 38.606 40.8898 37.314C40.1804 36.022 39.7751 34.5147 39.6738 32.792C39.6484 32.336 39.6358 31.7787 39.6358 31.12C39.6358 30.4613 39.6484 29.904 39.6738 29.448C39.7751 27.7 40.1931 26.1927 40.9278 24.926C41.6878 23.634 42.7518 22.6333 44.1198 21.924C45.5131 21.2147 47.1978 20.86 49.1738 20.86C51.1498 20.86 52.8218 21.2147 54.1898 21.924C55.5831 22.6333 56.6471 23.634 57.3818 24.926C58.1418 26.1927 58.5724 27.7 58.6738 29.448C58.6991 29.904 58.7118 30.4613 58.7118 31.12C58.7118 31.7787 58.6991 32.336 58.6738 32.792C58.5724 34.5147 58.1544 36.022 57.4198 37.314C56.7104 38.606 55.6591 39.6067 54.2658 40.316C52.8978 41.0253 51.2004 41.38 49.1738 41.38ZM49.1738 37.618C50.5164 37.618 51.5551 37.2 52.2898 36.364C53.0244 35.5027 53.4298 34.2487 53.5058 32.602C53.5311 32.222 53.5438 31.728 53.5438 31.12C53.5438 30.512 53.5311 30.018 53.5058 29.638C53.4298 28.0167 53.0244 26.7753 52.2898 25.914C51.5551 25.0527 50.5164 24.622 49.1738 24.622C47.8311 24.622 46.7924 25.0527 46.0578 25.914C45.3231 26.7753 44.9178 28.0167 44.8418 29.638C44.8164 30.018 44.8038 30.512 44.8038 31.12C44.8038 31.728 44.8164 32.222 44.8418 32.602C44.9178 34.2487 45.3231 35.5027 46.0578 36.364C46.7924 37.2 47.8311 37.618 49.1738 37.618ZM70.2561 41.38C68.9387 41.38 67.7734 41.1647 66.7601 40.734C65.7721 40.278 64.9487 39.6447 64.2901 38.834C63.6314 38.0233 63.1247 37.0733 62.7701 35.984C62.4154 34.8693 62.2127 33.6533 62.1621 32.336C62.1367 31.88 62.1241 31.4747 62.1241 31.12C62.1241 30.74 62.1367 30.322 62.1621 29.866C62.2127 28.5993 62.4027 27.4213 62.7321 26.332C63.0867 25.2427 63.5934 24.2927 64.2521 23.482C64.9361 22.646 65.7721 22 66.7601 21.544C67.7734 21.088 68.9387 20.86 70.2561 20.86C71.6241 20.86 72.7767 21.1007 73.7141 21.582C74.6767 22.038 75.4747 22.6333 76.1081 23.368V14.932C76.1081 14.6787 76.1841 14.4633 76.3361 14.286C76.5134 14.1087 76.7414 14.02 77.0201 14.02H80.2501C80.5034 14.02 80.7187 14.1087 80.8961 14.286C81.0734 14.4633 81.1621 14.6787 81.1621 14.932V40.088C81.1621 40.3413 81.0734 40.5567 80.8961 40.734C80.7187 40.9113 80.5034 41 80.2501 41H77.2481C76.9694 41 76.7414 40.9113 76.5641 40.734C76.4121 40.5567 76.3361 40.3413 76.3361 40.088V38.682C75.7027 39.4673 74.8921 40.1133 73.9041 40.62C72.9414 41.1267 71.7254 41.38 70.2561 41.38ZM71.6621 37.314C72.7261 37.314 73.5747 37.0733 74.2081 36.592C74.8414 36.1107 75.3101 35.5027 75.6141 34.768C75.9181 34.008 76.0827 33.2353 76.1081 32.45C76.1334 31.994 76.1461 31.5127 76.1461 31.006C76.1461 30.474 76.1334 29.98 76.1081 29.524C76.0827 28.764 75.9054 28.042 75.5761 27.358C75.2467 26.6487 74.7654 26.066 74.1321 25.61C73.4987 25.154 72.6754 24.926 71.6621 24.926C70.5981 24.926 69.7494 25.1667 69.1161 25.648C68.5081 26.104 68.0647 26.712 67.7861 27.472C67.5074 28.232 67.3427 29.068 67.2921 29.98C67.2667 30.74 67.2667 31.5 67.2921 32.26C67.3427 33.172 67.5074 34.008 67.7861 34.768C68.0647 35.528 68.5081 36.1487 69.1161 36.63C69.7494 37.086 70.5981 37.314 71.6621 37.314Z" fill="#252525"/>
</svg>
