<svg width="80" height="24" viewBox="0 0 80 24" fill="none" xmlns="http://www.w3.org/2000/svg">
<path d="M60.4744 15.9292C61.7343 17.909 66.4139 17.729 68.3937 17.0091C70.5535 16.1092 72.3533 13.7694 72.5333 11.4296C72.7133 8.18989 68.2137 3.33034 64.974 2.6104C63.8941 2.43042 62.8142 2.25044 61.5543 2.25044C58.6746 2.25044 55.9748 2.97037 53.2751 3.87029C43.376 7.46996 35.2767 14.6693 25.1977 18.089C19.0782 20.2488 11.8789 21.5087 6.4794 17.0091C1.79983 13.2294 0.179983 7.46996 0 1.53051C0 1.35052 1.97982 2.6104 1.97982 3.51032C2.1598 10.3497 4.13962 16.8291 11.6989 17.909C18.3583 18.8089 25.5576 15.5692 31.3171 12.5095C40.4963 7.82992 50.3953 -0.989264 61.1944 0.0906372C67.8537 0.810572 76.313 7.10999 73.9732 14.6693C71.8134 21.8686 62.4542 20.4288 59.0345 15.2092C58.1346 13.7694 60.1145 15.3892 60.4744 15.9292Z" fill="#F63C25"/>
<path d="M22.3181 8.0095C21.0582 6.02969 16.3787 6.20967 14.3989 6.92961C12.2391 7.82952 10.4392 9.98932 10.2592 12.5091C10.0793 14.6689 13.4989 19.3485 15.2988 20.4284C16.5587 21.1483 18.3585 21.5083 19.7984 21.5083C22.4981 21.6882 25.3778 21.3283 28.0776 20.4284C37.4367 17.5486 45.356 10.7093 54.3552 6.92961C60.6546 4.22985 69.8338 1.35012 75.7732 6.38965C79.5529 9.80934 80.4528 15.0289 79.5529 19.8884C79.5529 20.0684 77.3931 18.6285 77.573 17.9086C78.113 14.8489 78.473 11.2492 76.6731 8.54946C74.8733 5.8497 70.5537 5.66972 67.494 6.02969C60.8346 6.56964 54.3552 9.80934 48.7757 13.049C40.3165 17.7286 30.2374 26.0078 19.7984 23.4881C13.8589 22.0482 6.83956 15.7488 8.99936 9.08941C11.3391 2.07005 20.5183 3.32994 23.938 8.54946C24.6579 10.1693 22.6781 8.54945 22.3181 8.0095Z" fill="#F63C25"/>
</svg>
