<svg width="80" height="24" viewBox="0 0 80 24" fill="none" xmlns="http://www.w3.org/2000/svg">
<path d="M19.4006 15.9292C18.1407 17.909 13.4611 17.729 11.4813 17.0091C9.32151 16.1092 7.52168 13.7694 7.3417 11.4296C7.16171 8.18989 11.6613 3.33034 14.901 2.6104C15.9809 2.43042 17.0608 2.25044 18.3207 2.25044C21.2004 2.25044 23.9002 2.97037 26.5999 3.87029C36.499 7.46996 44.5983 14.6693 54.6773 18.089C60.7968 20.2488 67.9961 21.5087 73.3956 17.0091C78.0752 13.2294 79.695 7.46996 79.875 1.53051C79.875 1.35052 77.8952 2.6104 77.8952 3.51032C77.7152 10.3497 75.7354 16.8291 68.1761 17.909C61.5167 18.8089 54.3174 15.5692 48.5579 12.5095C39.3787 7.82992 29.4797 -0.989264 18.6806 0.0906372C12.0213 0.810572 3.56204 7.10999 5.90182 14.6693C8.06162 21.8686 17.4208 20.4288 20.8405 15.2092C21.7404 13.7694 19.7605 15.3892 19.4006 15.9292Z" fill="#F63C25"/>
<path d="M57.5569 8.0095C58.8168 6.02969 63.4963 6.20967 65.4761 6.92961C67.6359 7.82952 69.4358 9.98932 69.6158 12.5091C69.7957 14.6689 66.3761 19.3485 64.5762 20.4284C63.3163 21.1483 61.5165 21.5083 60.0766 21.5083C57.3769 21.6882 54.4972 21.3283 51.7974 20.4284C42.4383 17.5486 34.519 10.7093 25.5198 6.92961C19.2204 4.22985 10.0412 1.35012 4.1018 6.38965C0.322144 9.80934 -0.577766 15.0289 0.322144 19.8884C0.322144 20.0684 2.48195 18.6285 2.30196 17.9086C1.76201 14.8489 1.40205 11.2492 3.20188 8.54946C5.00172 5.8497 9.32132 5.66972 12.381 6.02969C19.0404 6.56964 25.5198 9.80934 31.0993 13.049C39.5585 17.7286 49.6376 26.0078 60.0766 23.4881C66.0161 22.0482 73.0354 15.7488 70.8756 9.08941C68.5359 2.07005 59.3567 3.32994 55.937 8.54946C55.2171 10.1693 57.1969 8.54945 57.5569 8.0095Z" fill="#F63C25"/>
</svg>
