<svg width="24" height="24" viewBox="0 0 24 24" fill="none" xmlns="http://www.w3.org/2000/svg">
<path d="M0.9375 15.3281C0.41972 15.3281 0 14.9084 0 14.3906V8.29688C0 6.22913 1.68225 4.54688 3.75 4.54688H5.17317C5.57466 4.54688 5.93133 4.29155 6.0607 3.91144L6.34435 3.07814C6.73247 1.93795 7.80244 1.17188 9.00684 1.17188H14.9961C16.1772 1.17188 17.2403 1.91827 17.6414 3.02911L17.9659 3.9278C18.0996 4.29806 18.4539 4.54688 18.8476 4.54688H20.25C22.3177 4.54688 24 6.22913 24 8.29688V19.0781C24 21.1459 22.3177 22.8281 20.25 22.8281H3.75C1.68225 22.8281 0 21.1459 0 19.0781C0 18.5603 0.41972 18.1406 0.9375 18.1406C1.45528 18.1406 1.875 18.5603 1.875 19.0781C1.875 20.112 2.71613 20.9531 3.75 20.9531H20.25C21.2839 20.9531 22.125 20.112 22.125 19.0781V8.29688C22.125 7.263 21.2839 6.42188 20.25 6.42188H18.8476C17.6666 6.42188 16.6035 5.67548 16.2024 4.56464L15.8779 3.66595C15.7441 3.29569 15.3898 3.04688 14.9961 3.04688H9.00684C8.60536 3.04688 8.24873 3.30225 8.11931 3.68231L7.83567 4.51561C7.44759 5.6558 6.37762 6.42188 5.17317 6.42188H3.75C2.71613 6.42188 1.875 7.263 1.875 8.29688V14.3906C1.875 14.9084 1.45528 15.3281 0.9375 15.3281Z" fill="white"/>
<path d="M11.9531 7.35938C15.184 7.35938 17.8125 9.98789 17.8125 13.2188C17.8125 16.4496 15.184 19.0781 11.9531 19.0781C8.72227 19.0781 6.09375 16.4496 6.09375 13.2188C6.09375 9.98789 8.72227 7.35938 11.9531 7.35938ZM11.9531 17.2031C14.1501 17.2031 15.9375 15.4157 15.9375 13.2188C15.9375 11.0218 14.1501 9.23438 11.9531 9.23438C9.75614 9.23438 7.96875 11.0218 7.96875 13.2188C7.96875 15.4157 9.75614 17.2031 11.9531 17.2031Z" fill="white"/>
</svg>
