<svg width="16" height="16" viewBox="0 0 16 16" fill="none" xmlns="http://www.w3.org/2000/svg">
<path d="M0 7.50692H3.88073C3.81438 10.3352 3.0122 10.6562 2.00469 10.7479L1.61616 10.796V13.906L2.064 13.882C3.37964 13.808 4.83418 13.5708 5.80461 12.3729C6.65527 11.3227 7.0303 9.60696 7.0303 6.97318V2.09277H0V7.50692Z" fill="#BCBCBC"/>
<path d="M8.96973 2.09277V7.50692H12.7987C12.7323 10.3352 11.9561 10.6562 10.9486 10.7479L10.5859 10.796V13.906L11.0079 13.882C12.3235 13.808 13.7911 13.5708 14.7615 12.3729C15.6121 11.3227 16 9.60696 16 6.97318V2.09277H8.96973Z" fill="#BCBCBC"/>
</svg>
