<svg width="27" height="27" viewBox="0 0 27 27" fill="none" xmlns="http://www.w3.org/2000/svg">
<path d="M26.9285 7.89456C26.9066 6.78133 26.6942 5.67993 26.3007 4.63754C25.9533 3.7453 25.4226 2.93493 24.7424 2.25824C24.0623 1.58155 23.2477 1.05342 22.3506 0.707597C21.3023 0.316655 20.1948 0.105539 19.0754 0.0832467C17.628 0.0156088 17.1693 0 13.5035 0C9.83768 0 9.37902 0.0156088 7.93677 0.0780438C6.81734 0.0999329 5.70982 0.311062 4.66161 0.702394C3.75806 1.04186 2.94061 1.57473 2.26715 2.26327C1.58193 2.93408 1.05119 3.74471 0.711536 4.63927C0.32101 5.67992 0.110503 6.77881 0.088942 7.88936C0.0156956 9.3271 0 9.78322 0 13.4305C0 17.0777 0.0156956 17.5321 0.0784782 18.9646C0.100421 20.0779 0.312728 21.1793 0.706304 22.2217C1.05385 23.1141 1.58483 23.9245 2.2653 24.6012C2.94577 25.2779 3.76074 25.806 4.65812 26.1516C5.70755 26.5429 6.81621 26.754 7.93677 26.776C9.37728 26.8384 9.83594 26.854 13.5017 26.854C17.1675 26.854 17.6262 26.8384 19.0667 26.776C20.1862 26.7542 21.2937 26.5431 22.3419 26.1516C23.2395 25.8065 24.0547 25.2786 24.7353 24.6018C25.4158 23.9251 25.9466 23.1143 26.2937 22.2217C26.6867 21.1791 26.8989 20.0778 26.9215 18.9646C26.9843 17.5321 27 17.076 27 13.4305C27 9.78496 27 9.32883 26.932 7.8963L26.9285 7.89456ZM24.5044 18.8588C24.4958 19.71 24.3389 20.5532 24.0405 21.351C23.8154 21.9302 23.4711 22.4561 23.0296 22.8952C22.5881 23.3342 22.0592 23.6766 21.4769 23.9005C20.6745 24.1967 19.8266 24.3528 18.9708 24.3618C17.546 24.4242 17.1187 24.4398 13.5157 24.4398C9.91267 24.4398 9.48017 24.4242 8.06059 24.3618C7.20468 24.3534 6.35675 24.1973 5.55451 23.9005C4.96857 23.6864 4.43866 23.3437 4.00413 22.8981C3.55706 22.465 3.2127 21.9383 2.99612 21.3563C2.6977 20.5584 2.54017 19.7153 2.53049 18.8641C2.4677 17.4471 2.45201 17.0222 2.45201 13.4391C2.45201 9.85606 2.4677 9.42596 2.53049 8.01423C2.53898 7.16306 2.69594 6.31982 2.99438 5.52203C3.20922 4.94163 3.5539 4.41738 4.00239 3.9889C4.43756 3.54399 4.96729 3.20149 5.55277 2.98648C6.35519 2.69036 7.20301 2.53429 8.05884 2.52515C9.48366 2.46272 9.91093 2.44711 13.514 2.44711C17.117 2.44711 17.5495 2.46272 18.9691 2.52515C19.825 2.53366 20.6729 2.68975 21.4751 2.98648C22.0611 3.20048 22.5911 3.54311 23.0255 3.9889C23.4726 4.42193 23.8169 4.94864 24.0335 5.5307C24.3329 6.32606 24.4922 7.16679 24.5044 8.01597C24.5672 9.43289 24.5829 9.8578 24.5829 13.4409C24.5829 17.024 24.5672 17.4437 24.5044 18.8606V18.8588Z" fill="#F63C25"/>
<path d="M13.5049 6.53125C12.1328 6.53125 10.7915 6.93586 9.6506 7.69392C8.50974 8.45199 7.62055 9.52946 7.09547 10.7901C6.57039 12.0507 6.433 13.4378 6.70069 14.7761C6.96837 16.1144 7.6291 17.3436 8.59932 18.3085C9.56954 19.2733 10.8057 19.9303 12.1514 20.1965C13.4971 20.4627 14.892 20.3261 16.1597 19.804C17.4274 19.2818 18.5109 18.3975 19.2732 17.263C20.0355 16.1285 20.4423 14.7946 20.4423 13.4302C20.4419 11.6006 19.7108 9.8461 18.4099 8.5524C17.1089 7.2587 15.3446 6.53171 13.5049 6.53125ZM13.5049 17.9046C12.615 17.9046 11.745 17.6422 11.0051 17.1505C10.2652 16.6588 9.68848 15.96 9.34793 15.1424C9.00738 14.3249 8.91829 13.4252 9.0919 12.5573C9.26551 11.6893 9.69403 10.892 10.3233 10.2663C10.9525 9.64052 11.7542 9.21437 12.6271 9.04173C13.4999 8.86908 14.4045 8.9577 15.2267 9.29635C16.0489 9.63501 16.7516 10.2085 17.246 10.9443C17.7404 11.6801 18.0043 12.5452 18.0043 13.4302C18.0038 14.6167 17.5296 15.7545 16.6859 16.5936C15.8422 17.4326 14.698 17.9041 13.5049 17.9046Z" fill="#F63C25"/>
<path d="M22.335 6.25733C22.335 6.57592 22.24 6.88737 22.0619 7.15227C21.8839 7.41717 21.6309 7.62363 21.3349 7.74555C21.0388 7.86747 20.713 7.89937 20.3988 7.83721C20.0845 7.77506 19.7958 7.62165 19.5693 7.39637C19.3427 7.17109 19.1884 6.88407 19.1259 6.57159C19.0633 6.25912 19.0954 5.93522 19.218 5.64088C19.3407 5.34654 19.5483 5.09497 19.8148 4.91797C20.0812 4.74097 20.3944 4.64648 20.7148 4.64648C21.1445 4.64648 21.5567 4.81621 21.8605 5.1183C22.1643 5.42039 22.335 5.8301 22.335 6.25733Z" fill="#F63C25"/>
</svg>