<svg width="230" height="48" viewBox="0 0 230 48" fill="none" xmlns="http://www.w3.org/2000/svg">
<g clip-path="url(#clip0)">
<path d="M0.290955 38.0487C0.145478 37.9024 0 37.6097 0 37.1707V11.7073C0 11.4146 0.145478 11.1219 0.290955 10.8292C0.58191 10.5365 0.872865 10.5365 1.16382 10.5365H3.63694C3.92789 10.5365 4.21885 10.6829 4.5098 10.8292C4.80076 10.9756 4.94624 11.2682 4.94624 11.7073V14.0487C5.96458 12.7317 7.27388 11.7073 8.72865 10.9756C10.1834 10.2439 11.9292 9.95117 13.9658 9.95117C17.4573 9.95117 20.0759 11.1219 21.9671 13.317C23.8583 15.5121 24.8767 18.439 24.8767 22.0975V37.317C24.8767 37.6097 24.7312 37.9024 24.5857 38.1951C24.4402 38.4878 24.0038 38.4878 23.7128 38.4878H21.0942C20.8033 38.4878 20.5123 38.3414 20.2214 38.1951C19.9304 37.9024 19.9304 37.6097 19.9304 37.317V22.2439C19.9304 19.7561 19.3485 17.7073 18.0392 16.2439C16.7299 14.7804 14.9842 14.1951 12.6565 14.1951C10.4744 14.1951 8.58317 14.9268 7.27388 16.3902C5.96458 17.8536 5.23719 19.7561 5.23719 22.2439V37.1707C5.23719 37.4634 5.09171 37.7561 4.94624 38.0487C4.65528 38.3414 4.36433 38.3414 4.07337 38.3414H1.16382C0.872865 38.4878 0.58191 38.3414 0.290955 38.0487Z" fill="#252525"/>
<path d="M34.7698 35.5608C32.5876 33.2193 31.4238 30.1462 31.1328 26.1949V24.2925V22.5364C31.4238 18.5852 32.5876 15.512 34.7698 13.3169C36.9519 10.9754 39.8615 9.80469 43.4984 9.80469C47.4263 9.80469 50.4813 11.1218 52.6635 13.6096C54.8456 16.0974 55.864 19.6096 55.864 23.8535V24.8779C55.864 25.1705 55.7185 25.4632 55.573 25.7559C55.2821 26.0486 54.9911 26.0486 54.7002 26.0486H36.2245V26.4876C36.37 28.8291 37.0974 30.8779 38.4067 32.4876C39.716 34.0974 41.4617 34.9754 43.6439 34.9754C45.2441 34.9754 46.6989 34.6827 47.7172 33.951C48.7356 33.2193 49.6085 32.634 50.0449 31.9023C50.3358 31.4632 50.6268 31.1705 50.7723 31.1705C50.9178 31.0242 51.2087 31.0242 51.6451 31.0242H54.2637C54.5547 31.0242 54.8457 31.1705 55.1366 31.3169C55.2821 31.4632 55.4276 31.7559 55.4276 32.0486C55.4276 32.7803 54.9911 33.8047 53.9728 34.9754C52.9544 36.1462 51.6451 37.0242 49.8994 37.9023C48.1537 38.7803 46.117 39.073 43.7894 39.073C40.0069 39.073 36.9519 37.9022 34.7698 35.5608ZM50.9178 22.3901V22.2437C50.9178 19.7559 50.1904 17.7071 48.8811 16.2437C47.5718 14.634 45.826 13.7559 43.6439 13.7559C41.4617 13.7559 39.5705 14.4876 38.2612 16.0974C36.9519 17.7071 36.37 19.7559 36.37 22.0974V22.2437H50.9178V22.3901Z" fill="#252525"/>
<path d="M68.0842 38.195C67.7932 38.0487 67.6478 37.6096 67.5023 37.1706L59.792 12.1462L59.6465 11.5609C59.6465 11.2682 59.792 10.9755 59.9374 10.6828C60.2284 10.5365 60.3739 10.3901 60.6648 10.3901H62.9925C63.2834 10.3901 63.5744 10.5365 63.8653 10.6828C64.1563 10.8292 64.3018 11.1218 64.3018 11.2682L70.2663 31.6096L76.6674 11.5609C76.6674 11.2682 76.9583 10.9755 77.1038 10.8292C77.3947 10.5365 77.6857 10.5365 78.1221 10.5365H80.0133C80.4498 10.5365 80.7407 10.6828 81.0317 10.8292C81.3226 11.1218 81.4681 11.2682 81.4681 11.5609L87.8691 31.6096L93.8337 11.2682C93.8337 11.1218 93.9792 10.8292 94.2701 10.6828C94.5611 10.5365 94.8521 10.3901 95.143 10.3901H97.6161C97.9071 10.3901 98.198 10.5365 98.3435 10.6828C98.489 10.8292 98.6345 11.1218 98.6345 11.5609L98.489 12.1462L90.9242 37.1706C90.7787 37.6096 90.4877 38.0487 90.3422 38.195C90.0513 38.3414 89.7603 38.4877 89.1784 38.4877H87.2872C86.2689 38.4877 85.687 38.0487 85.5415 37.1706L79.286 17.8536L73.0304 37.1706C72.7395 38.0487 72.1576 38.4877 71.2847 38.4877H69.248C68.6661 38.4877 68.3751 38.3414 68.0842 38.195Z" fill="#252525"/>
<path d="M107.363 37.756C105.617 36.878 104.454 35.9999 103.581 34.9755C102.708 33.9511 102.271 33.0731 102.271 32.3414C102.271 32.0487 102.417 31.756 102.708 31.4633C102.999 31.317 103.29 31.1706 103.581 31.1706H106.054C106.345 31.1706 106.781 31.317 107.072 31.756C107.945 32.7804 108.818 33.5121 109.836 34.0975C110.855 34.6828 112.164 34.9755 113.91 34.9755C115.801 34.9755 117.256 34.5365 118.419 33.8048C119.583 33.0731 120.165 32.0487 120.165 30.7316C120.165 29.8536 119.874 29.1219 119.438 28.5365C119.001 27.9511 118.129 27.5121 116.965 27.0731C115.801 26.6341 114.055 26.195 111.728 25.756C108.672 25.0243 106.345 24.1463 105.181 22.8292C103.872 21.5121 103.29 19.9024 103.29 17.8536C103.29 16.5365 103.726 15.2194 104.454 13.9024C105.327 12.7316 106.49 11.7072 107.945 10.8292C109.4 9.95113 111.437 9.65845 113.619 9.65845C115.946 9.65845 117.838 10.0975 119.438 10.8292C121.038 11.5609 122.202 12.4389 123.075 13.4633C123.948 14.4877 124.239 15.3658 124.239 16.0975C124.239 16.3902 124.093 16.6828 123.948 16.9755C123.657 17.1219 123.511 17.2682 123.075 17.2682H120.893C120.456 17.2682 120.165 17.1219 119.874 16.6828C119.292 15.9511 118.856 15.5121 118.419 15.0731C117.983 14.6341 117.401 14.3414 116.674 14.0487C115.946 13.756 114.928 13.6097 113.764 13.6097C112.018 13.6097 110.709 14.0487 109.836 14.7804C108.963 15.5121 108.382 16.5365 108.382 17.7072C108.382 18.4389 108.527 19.1706 108.963 19.6097C109.4 20.195 110.127 20.6341 111.291 21.0731C112.455 21.5121 114.055 21.9511 116.237 22.3902C119.583 23.1219 122.056 24.1463 123.511 25.4633C124.966 26.7804 125.693 28.5365 125.693 30.5853C125.693 32.195 125.257 33.5121 124.384 34.8292C123.511 36.1463 122.202 37.0243 120.456 37.756C118.71 38.4877 116.674 38.7804 114.201 38.7804C111.146 39.0731 109.109 38.6341 107.363 37.756Z" fill="#252525"/>
<path d="M157.116 10.3901H151.006C150.279 10.3901 149.697 10.8292 149.406 11.5609L143.296 28.0975L137.331 11.5609C137.04 10.8292 136.604 10.3901 135.731 10.3901H129.621C129.33 10.3901 129.039 10.5365 128.748 10.6828C128.457 10.9755 128.457 11.2682 128.457 11.5609L128.603 11.9999L138.786 37.0243C138.931 37.4633 139.222 37.756 139.513 38.0487C139.804 38.3414 140.095 38.3414 140.677 38.3414H146.351C146.787 38.3414 147.224 38.195 147.515 38.0487C147.806 37.9023 148.096 37.4633 148.242 37.0243L158.425 11.9999L158.571 11.5609C158.571 11.2682 158.425 10.9755 158.134 10.6828C157.698 10.5365 157.407 10.3901 157.116 10.3901Z" fill="#252525"/>
<path d="M201.778 0.14624H195.522C195.231 0.14624 194.795 0.292582 194.649 0.585265C194.358 0.877948 194.213 1.17063 194.213 1.60965V37.1706C194.213 37.4633 194.358 37.9023 194.649 38.0487C194.94 38.195 195.231 38.4877 195.522 38.4877H201.778C202.214 38.4877 202.505 38.3414 202.796 38.0487C203.087 37.756 203.232 37.4633 203.232 37.0243V1.46331C203.232 1.02429 203.087 0.731606 202.796 0.438923C202.505 0.292582 202.214 0.14624 201.778 0.14624Z" fill="#252525"/>
<path d="M229.709 31.4634C229.418 31.1707 229.127 31.0244 228.691 31.0244H224.617C222.581 31.0244 221.562 29.7073 221.562 27.0732V17.561H228.254C228.691 17.561 228.982 17.4146 229.273 17.122C229.564 16.8293 229.709 16.5366 229.709 16.0976V11.7073C229.709 11.2683 229.564 10.9756 229.273 10.6829C228.982 10.3902 228.691 10.2439 228.254 10.2439H221.562V1.46341C221.562 1.02439 221.417 0.731707 221.126 0.439024C220.835 0.146341 220.544 0 220.108 0H213.852C213.561 0 213.125 0.146341 212.979 0.439024C212.688 0.731707 212.543 1.02439 212.543 1.46341V10.3902H208.324C207.887 10.3902 207.597 10.5366 207.306 10.8293C207.015 11.122 206.869 11.4146 206.869 11.8537V16.2439C206.869 16.6829 207.015 16.9756 207.306 17.2683C207.597 17.561 207.887 17.7073 208.324 17.7073H212.543V27.8049C212.543 34.8293 216.18 38.4878 223.599 38.4878H228.545C228.982 38.4878 229.273 38.3415 229.564 38.0488C229.855 37.7561 230 37.4634 230 37.1707V32.4878C230 32.0488 230 31.7561 229.709 31.4634Z" fill="#252525"/>
<path d="M161.19 31.0245C161.481 30.0001 161.918 29.122 162.209 28.244C162.936 26.1952 163.663 24.1464 164.536 22.0977L168.028 13.3172L171.665 17.7074C172.392 16.9757 173.41 16.683 174.72 16.683C175.156 16.683 175.593 16.683 176.029 16.8294C176.611 15.6586 177.193 14.6342 177.92 13.4635C178.502 12.5855 179.084 11.5611 179.52 10.683C178.066 10.3903 176.465 10.0977 174.72 10.0977C170.501 10.0977 167.009 11.122 164.536 13.3172C162.063 15.5123 160.754 18.4391 160.463 22.244C160.463 22.683 160.463 23.5611 160.463 24.7318C160.463 25.9025 160.463 26.6342 160.463 27.2196C160.463 28.3903 160.754 29.7074 161.19 31.0245Z" fill="#252525"/>
<path d="M187.812 17.2683C187.667 17.4147 187.667 17.7073 187.521 17.8537C186.358 20.7805 185.339 23.4147 184.176 26.0488C183.157 28.3903 181.993 31.0244 180.393 34.0976L178.211 38.6342C180.975 38.1951 183.157 37.1707 184.903 35.7073C187.231 33.6586 188.54 30.5854 188.831 26.7805C188.831 26.3415 188.831 25.4634 188.831 24.2927C188.831 23.122 188.831 22.3903 188.831 21.8049C188.685 20.3415 188.394 18.7317 187.812 17.2683Z" fill="#252525"/>
<path d="M168.609 38.1952C169.919 38.6343 171.373 38.9269 172.974 38.9269L170.355 35.1221C169.773 36.1465 169.191 37.1708 168.609 38.1952Z" fill="#252525"/>
<path id="logo-theme" d="M184.902 7.17077C184.465 7.75614 184.174 8.34151 183.738 8.92687C183.156 9.80492 182.72 10.5366 182.138 11.4147C181.41 12.4391 180.829 13.6098 180.247 14.6342C179.519 15.8049 178.937 16.9757 178.21 18.2927C177.628 19.4635 176.901 20.6342 176.319 21.8049C176.173 21.9513 176.173 22.0976 176.028 22.3903C175.446 23.561 174.864 24.5854 174.427 25.7561C173.846 25.0244 173.264 24.2927 172.682 23.7074C172.391 23.4147 172.1 22.9757 171.809 22.683L170.063 20.4878L168.754 18.8781L167.154 23.122C166.426 25.1708 165.553 27.2196 164.826 29.2683C164.244 31.0244 163.662 32.7805 162.935 34.5366C162.789 34.8293 162.789 35.122 162.644 35.4147C162.353 36.1464 162.207 37.0244 161.916 37.7561C161.48 39.0732 161.044 40.3903 160.753 41.7074C160.462 42.7318 160.171 43.7561 159.88 44.9269C159.589 45.9513 159.298 47.122 159.152 48.1464C159.734 47.2683 160.462 46.3903 161.044 45.3659C161.625 44.4878 162.207 43.4635 162.789 42.5854C163.371 41.561 163.953 40.683 164.535 39.6586C164.971 38.7805 165.553 37.9025 165.99 37.1708L166.135 37.0244C167.154 35.122 168.317 33.2196 169.336 31.3171C169.627 30.8781 169.918 30.2927 170.063 29.8537C170.936 31.1708 171.809 32.3415 172.682 33.6586L175.591 37.7561L177.919 33.0732C179.228 30.4391 180.392 27.8049 181.556 25.1708C182.72 22.5366 183.884 19.7561 184.902 17.122C185.193 16.2439 185.629 15.3659 185.92 14.4878C186.357 13.4635 186.648 12.4391 186.939 11.4147C187.23 10.5366 187.52 9.80492 187.811 8.92687C188.248 7.46346 188.684 6.14638 189.121 4.68297C189.557 3.21955 189.848 1.75614 190.139 0.292725C189.121 1.46346 188.248 2.63419 187.375 3.80492C186.502 4.68297 185.629 6.00004 184.902 7.17077Z" fill="#F63C25"/>
</g>
<defs>
<clipPath id="clip0">
<rect width="230" height="48" fill="white"/>
</clipPath>
</defs>
</svg>
