<svg width="212" height="49" viewBox="0 0 212 49" fill="none" xmlns="http://www.w3.org/2000/svg">
<path d="M138.659 10.3902H132.549C131.822 10.3902 131.24 10.8293 130.949 11.561L124.839 28.0975L118.874 11.561C118.583 10.8293 118.147 10.3902 117.274 10.3902H111.164C110.873 10.3902 110.582 10.5366 110.291 10.6829C110 10.9756 110 11.2683 110 11.561L110.145 12L120.329 37.0244C120.474 37.4634 120.765 37.7561 121.056 38.0488C121.347 38.3414 121.638 38.3414 122.22 38.3414H127.894C128.33 38.3414 128.767 38.1951 129.058 38.0488C129.348 37.9024 129.639 37.4634 129.785 37.0244L139.968 12L140.114 11.561C140.114 11.2683 139.968 10.9756 139.677 10.6829C139.241 10.5366 138.95 10.3902 138.659 10.3902Z" fill="white"/>
<path d="M183.321 0.146332H177.065C176.774 0.146332 176.338 0.292673 176.192 0.585356C175.901 0.878039 175.756 1.17072 175.756 1.60975V37.1707C175.756 37.4634 175.901 37.9024 176.192 38.0488C176.483 38.1951 176.774 38.4878 177.065 38.4878H183.321C183.757 38.4878 184.048 38.3415 184.339 38.0488C184.63 37.7561 184.775 37.4634 184.775 37.0244V1.46341C184.775 1.02438 184.63 0.731698 184.339 0.439015C184.048 0.292673 183.757 0.146332 183.321 0.146332Z" fill="white"/>
<path d="M211.252 31.4634C210.961 31.1707 210.67 31.0244 210.234 31.0244H206.161C204.124 31.0244 203.106 29.7073 203.106 27.0732V17.561H209.798C210.234 17.561 210.525 17.4146 210.816 17.122C211.107 16.8293 211.252 16.5366 211.252 16.0976V11.7073C211.252 11.2683 211.107 10.9756 210.816 10.6829C210.525 10.3902 210.234 10.2439 209.798 10.2439H203.106V1.46341C203.106 1.02439 202.96 0.731707 202.669 0.439024C202.378 0.146341 202.087 0 201.651 0H195.395C195.104 0 194.668 0.146341 194.522 0.439024C194.231 0.731707 194.086 1.02439 194.086 1.46341V10.3902H189.867C189.431 10.3902 189.14 10.5366 188.849 10.8293C188.558 11.122 188.412 11.4146 188.412 11.8537V16.2439C188.412 16.6829 188.558 16.9756 188.849 17.2683C189.14 17.561 189.431 17.7073 189.867 17.7073H194.086V27.8049C194.086 34.8293 197.723 38.4878 205.142 38.4878H210.089C210.525 38.4878 210.816 38.3415 211.107 38.0488C211.398 37.7561 211.543 37.4634 211.543 37.1707V32.4878C211.543 32.0488 211.543 31.7561 211.252 31.4634Z" fill="white"/>
<path d="M142.732 31.0244C143.023 30 143.46 29.122 143.751 28.2439C144.478 26.1951 145.206 24.1463 146.078 22.0976L149.57 13.3171L153.207 17.7073C153.934 16.9756 154.953 16.6829 156.262 16.6829C156.698 16.6829 157.135 16.6829 157.571 16.8293C158.153 15.6585 158.735 14.6341 159.462 13.4634C160.044 12.5854 160.626 11.561 161.063 10.6829C159.608 10.3902 158.008 10.0976 156.262 10.0976C152.043 10.0976 148.552 11.122 146.078 13.3171C143.605 15.5122 142.296 18.439 142.005 22.2439C142.005 22.6829 142.005 23.561 142.005 24.7317C142.005 25.9024 142.005 26.6342 142.005 27.2195C142.005 28.3902 142.296 29.7073 142.732 31.0244Z" fill="white"/>
<path d="M169.355 17.2683C169.209 17.4147 169.209 17.7073 169.064 17.8537C167.9 20.7805 166.882 23.4147 165.718 26.0488C164.7 28.3903 163.536 31.0244 161.935 34.0976L159.753 38.6342C162.517 38.1951 164.7 37.1707 166.445 35.7073C168.773 33.6586 170.082 30.5854 170.373 26.7805C170.373 26.3415 170.373 25.4634 170.373 24.2927C170.373 23.122 170.373 22.3903 170.373 21.8049C170.228 20.3415 169.937 18.7317 169.355 17.2683Z" fill="white"/>
<path d="M150.152 38.1951C151.461 38.6341 152.916 38.9268 154.516 38.9268L151.898 35.1219C151.316 36.1463 150.734 37.1707 150.152 38.1951Z" fill="white"/>
<path d="M166.445 7.17071C166.009 7.75608 165.718 8.34144 165.281 8.92681C164.7 9.80486 164.263 10.5366 163.681 11.4146C162.954 12.439 162.372 13.6097 161.79 14.6341C161.063 15.8049 160.481 16.9756 159.753 18.2927C159.171 19.4634 158.444 20.6341 157.862 21.8049C157.717 21.9512 157.717 22.0975 157.571 22.3902C156.989 23.561 156.407 24.5853 155.971 25.7561C155.389 25.0244 154.807 24.2927 154.225 23.7073C153.934 23.4146 153.643 22.9756 153.352 22.6829L151.607 20.4878L150.297 18.878L148.697 23.1219C147.97 25.1707 147.097 27.2195 146.369 29.2683C145.787 31.0244 145.206 32.7805 144.478 34.5366C144.333 34.8293 144.333 35.1219 144.187 35.4146C143.896 36.1463 143.751 37.0244 143.46 37.7561C143.023 39.0732 142.587 40.3902 142.296 41.7073C142.005 42.7317 141.714 43.7561 141.423 44.9268C141.132 45.9512 140.841 47.1219 140.696 48.1463C141.278 47.2683 142.005 46.3902 142.587 45.3658C143.169 44.4878 143.751 43.4634 144.333 42.5853C144.915 41.561 145.496 40.6829 146.078 39.6585C146.515 38.7805 147.097 37.9024 147.533 37.1707L147.679 37.0244C148.697 35.1219 149.861 33.2195 150.879 31.3171C151.17 30.878 151.461 30.2927 151.607 29.8536C152.479 31.1707 153.352 32.3414 154.225 33.6585L157.135 37.7561L159.462 33.0732C160.772 30.439 161.935 27.8049 163.099 25.1707C164.263 22.5366 165.427 19.7561 166.445 17.1219C166.736 16.2439 167.173 15.3658 167.464 14.4878C167.9 13.4634 168.191 12.439 168.482 11.4146C168.773 10.5366 169.064 9.80486 169.355 8.92681C169.791 7.4634 170.228 6.14632 170.664 4.68291C171.101 3.21949 171.392 1.75608 171.682 0.292664C170.664 1.4634 169.791 2.63413 168.918 3.80486C168.046 4.68291 167.173 5.99998 166.445 7.17071Z" fill="white"/>
<path d="M13.468 38.92C7.99067 38.92 5.252 35.8693 5.252 29.768V16.04H1.196C0.849333 16.04 0.554667 15.936 0.312 15.728C0.104 15.4853 0 15.1907 0 14.844V13.076C0 12.7293 0.104 12.452 0.312 12.244C0.554667 12.0013 0.849333 11.88 1.196 11.88H5.252V3.196C5.252 2.84933 5.356 2.572 5.564 2.364C5.80667 2.12133 6.10133 2 6.448 2H8.892C9.23867 2 9.516 2.12133 9.724 2.364C9.96667 2.572 10.088 2.84933 10.088 3.196V11.88H16.536C16.8827 11.88 17.16 12.0013 17.368 12.244C17.6107 12.452 17.732 12.7293 17.732 13.076V14.844C17.732 15.1907 17.6107 15.4853 17.368 15.728C17.16 15.936 16.8827 16.04 16.536 16.04H10.088V29.404C10.088 31.1373 10.3827 32.4547 10.972 33.356C11.5613 34.2227 12.532 34.656 13.884 34.656H17.056C17.4027 34.656 17.68 34.7773 17.888 35.02C18.1307 35.228 18.252 35.5053 18.252 35.852V37.724C18.252 38.0707 18.1307 38.3653 17.888 38.608C17.68 38.816 17.4027 38.92 17.056 38.92H13.468Z" fill="white"/>
<path d="M34.0405 39.44C30.4698 39.44 27.6098 38.348 25.4605 36.164C23.3458 33.9453 22.1845 30.9293 21.9765 27.116L21.9245 25.348L21.9765 23.632C22.2192 19.888 23.3978 16.9067 25.5125 14.688C27.6618 12.4693 30.4872 11.36 33.9885 11.36C37.8365 11.36 40.8178 12.5907 42.9325 15.052C45.0472 17.4787 46.1045 20.772 46.1045 24.932V25.816C46.1045 26.1627 45.9832 26.4573 45.7405 26.7C45.5325 26.908 45.2552 27.012 44.9085 27.012H26.9165V27.48C27.0205 29.7333 27.6965 31.6573 28.9445 33.252C30.2272 34.812 31.9085 35.592 33.9885 35.592C35.5832 35.592 36.8832 35.28 37.8885 34.656C38.9285 33.9973 39.6912 33.3213 40.1765 32.628C40.4885 32.212 40.7138 31.9693 40.8525 31.9C41.0258 31.796 41.3205 31.744 41.7365 31.744H44.2845C44.5965 31.744 44.8565 31.8307 45.0645 32.004C45.2725 32.1773 45.3765 32.42 45.3765 32.732C45.3765 33.4947 44.8912 34.4133 43.9205 35.488C42.9845 36.5627 41.6498 37.4987 39.9165 38.296C38.2178 39.0587 36.2592 39.44 34.0405 39.44ZM41.1645 23.424V23.268C41.1645 20.876 40.5058 18.9347 39.1885 17.444C37.9058 15.9187 36.1725 15.156 33.9885 15.156C31.8045 15.156 30.0712 15.9187 28.7885 17.444C27.5405 18.9347 26.9165 20.876 26.9165 23.268V23.424H41.1645Z" fill="white"/>
<path d="M63.2422 39.44C59.5328 39.44 56.6208 38.4 54.5062 36.32C52.4262 34.2053 51.3168 31.2587 51.1782 27.48L51.1262 25.4L51.1782 23.32C51.3168 19.5413 52.4262 16.612 54.5062 14.532C56.6208 12.4173 59.5328 11.36 63.2422 11.36C65.7382 11.36 67.8528 11.8107 69.5862 12.712C71.3195 13.6133 72.6022 14.7227 73.4342 16.04C74.3008 17.3573 74.7688 18.6747 74.8382 19.992C74.8728 20.3387 74.7688 20.616 74.5262 20.824C74.2835 21.032 73.9888 21.136 73.6422 21.136H71.1462C70.7995 21.136 70.5395 21.0667 70.3662 20.928C70.1928 20.7893 70.0195 20.512 69.8462 20.096C69.2568 18.432 68.4248 17.2533 67.3502 16.56C66.2755 15.832 64.9235 15.468 63.2942 15.468C61.1448 15.468 59.4288 16.144 58.1462 17.496C56.8982 18.8133 56.2222 20.8413 56.1182 23.58L56.0662 25.452L56.1182 27.22C56.2222 29.9933 56.8982 32.0387 58.1462 33.356C59.3942 34.6733 61.1102 35.332 63.2942 35.332C64.9235 35.332 66.2755 34.9853 67.3502 34.292C68.4248 33.564 69.2568 32.368 69.8462 30.704C70.0195 30.288 70.1928 30.0107 70.3662 29.872C70.5395 29.6987 70.7995 29.612 71.1462 29.612H73.6422C73.9888 29.612 74.2835 29.7333 74.5262 29.976C74.7688 30.184 74.8728 30.4613 74.8382 30.808C74.7688 32.0907 74.3008 33.408 73.4342 34.76C72.6022 36.0773 71.3195 37.1867 69.5862 38.088C67.8875 38.9893 65.7728 39.44 63.2422 39.44Z" fill="white"/>
<path d="M82.2616 38.92C81.9149 38.92 81.6202 38.816 81.3776 38.608C81.1696 38.3653 81.0656 38.0707 81.0656 37.724V3.196C81.0656 2.84933 81.1696 2.572 81.3776 2.364C81.6202 2.12133 81.9149 2 82.2616 2H84.8616C85.2082 2 85.4856 2.12133 85.6936 2.364C85.9362 2.572 86.0576 2.84933 86.0576 3.196V15.312C87.0629 14.0293 88.2416 13.0587 89.5936 12.4C90.9456 11.7067 92.6269 11.36 94.6376 11.36C97.9656 11.36 100.548 12.4347 102.386 14.584C104.258 16.6987 105.194 19.524 105.194 23.06V37.724C105.194 38.0707 105.072 38.3653 104.83 38.608C104.622 38.816 104.344 38.92 103.998 38.92H101.398C101.051 38.92 100.756 38.816 100.514 38.608C100.306 38.3653 100.202 38.0707 100.202 37.724V23.32C100.202 20.8587 99.5949 18.952 98.3816 17.6C97.2029 16.248 95.4869 15.572 93.2336 15.572C91.0496 15.572 89.2989 16.2653 87.9816 17.652C86.6989 19.004 86.0576 20.8933 86.0576 23.32V37.724C86.0576 38.0707 85.9362 38.3653 85.6936 38.608C85.4856 38.816 85.2082 38.92 84.8616 38.92H82.2616Z" fill="white"/>
</svg>
